<?xml version="1.0" encoding="utf-8"?>
<!-- Generator: Adobe Illustrator 22.1.0, SVG Export Plug-In . SVG Version: 6.00 Build 0)  -->
<svg version="1.1" id="Слой_1" xmlns="http://www.w3.org/2000/svg" xmlns:xlink="http://www.w3.org/1999/xlink" x="0px" y="0px"
	 viewBox="0 0 3043.2 2034.9" style="enable-background:new 0 0 3043.2 2034.9;" xml:space="preserve">
<style type="text/css">
	.st0{opacity:0.5;fill:#0D58B2;}
	.st1{opacity:0.38;fill:#0D58B2;}
	.st2{fill:#FFFFFF;}
	.st3{fill:#E4E7EF;}
	.st4{fill:#298CE5;}
	.st5{fill:#45ABFF;}
	.st6{fill:#2399E8;}
	.st7{fill:#BCC9DD;}
	.st8{opacity:0.54;fill:#DCE1E5;}
	.st9{fill:#F2F6F9;}
	.st10{fill:#1E294C;}
	.st11{fill:#2A345C;}
	.st12{fill:#212B4C;}
	.st13{fill:#3D4B74;}
	.st14{fill:#57668C;}
	.st15{opacity:0.46;fill:#212B4C;}
	.st16{fill:#0A1031;}
	.st17{fill:#495A84;}
	.st18{opacity:0.5;fill:#FFFFFF;}
	.st19{fill:url(#SVGID_3_);}
	.st20{fill:#FE58B9;}
	.st21{fill:#3EED85;}
	.st22{fill:#009DE6;}
	.st23{fill:#EE3D70;}
	.st24{fill:#0058B9;}
	.st25{fill:#FCACBA;}
	.st26{fill:#D1D3D4;}
	.st27{fill:#E94B26;}
	.st28{fill:#CE3A1D;}
	.st29{fill:#FF5E43;}
	.st30{opacity:0.3;fill:#CE3A1D;}
	.st31{fill:#C4311E;}
	.st32{fill:#ABB4B7;}
	.st33{clip-path:url(#SVGID_5_);}
	.st34{fill:none;stroke:#FFFFFF;stroke-width:3;stroke-linecap:round;stroke-linejoin:round;stroke-miterlimit:10;}
	.st35{fill:#322D4E;}
	.st36{fill:#CE947A;}
	.st37{fill:#EFA486;}
	.st38{fill:#112B7F;}
	.st39{fill:#BF856D;}
	.st40{fill:none;stroke:#EE3D70;stroke-width:20;stroke-linecap:round;stroke-miterlimit:10;}
	.st41{fill:#FFC4CB;}
	.st42{fill:#F59FAA;}
	.st43{fill:#3D375B;}
	.st44{fill:#F38C9C;}
	.st45{fill:#EC8394;}
	.st46{fill:none;stroke:#27243F;stroke-width:2;stroke-miterlimit:10;}
	.st47{fill:#FF4885;}
	.st48{fill:url(#SVGID_6_);}
	.st49{fill:#FFB91D;}
	.st50{fill:#49446D;}
	.st51{fill:#27243F;}
	.st52{fill:#444063;}
	.st53{fill:none;stroke:#3D375B;stroke-width:7;stroke-linecap:round;stroke-miterlimit:10;}
	.st54{fill:none;stroke:#071951;stroke-width:19;stroke-miterlimit:10;}
	.st55{fill:none;stroke:#41A6F9;stroke-width:44;stroke-linecap:round;stroke-miterlimit:10;}
	.st56{opacity:0.2;fill:#0A1031;}
	.st57{fill:#41A6F9;}
	.st58{fill:#0A1E70;}
	.st59{fill:#061959;}
	.st60{opacity:0.34;fill:#0A1031;}
	.st61{fill:none;stroke:#0A1E70;stroke-width:37;stroke-linecap:round;stroke-miterlimit:10;}
	.st62{fill:#D7EDFF;}
	.st63{fill:none;stroke:#94C7F5;stroke-width:3;stroke-linecap:round;stroke-linejoin:round;stroke-dasharray:20,14;}
	.st64{fill:#495156;}
	.st65{fill:#FFD5CF;}
	.st66{fill:none;stroke:#FFDACC;stroke-width:3;stroke-miterlimit:10;}
	.st67{fill:#FFB345;}
	.st68{fill-rule:evenodd;clip-rule:evenodd;fill:#151D3D;}
	.st69{fill-rule:evenodd;clip-rule:evenodd;fill:#33385C;}
	.st70{fill-rule:evenodd;clip-rule:evenodd;fill:#484E78;}
	.st71{fill-rule:evenodd;clip-rule:evenodd;fill:#6B72A4;}
	.st72{fill-rule:evenodd;clip-rule:evenodd;fill:#112128;}
	.st73{fill:#BBE4FF;}
	.st74{opacity:0.4;fill:url(#SVGID_19_);}
	.st75{fill:none;stroke:#3B3B5E;stroke-width:8;stroke-miterlimit:10;}
	.st76{fill:#18183D;}
	.st77{fill:#201028;}
	.st78{fill:#110F26;}
	.st79{fill:#3B3D5E;}
	.st80{fill:#693F82;}
	.st81{fill:#0067BC;}
	.st82{fill:#107FEA;}
	.st83{fill:#E8ECEF;}
	.st84{fill:#313E66;}
	.st85{fill:#0075D6;}
	.st86{fill:none;stroke:#2C4C7A;stroke-width:3;stroke-miterlimit:10;}
	.st87{fill:#C1A16F;}
	.st88{fill:#9FD3F7;}
	.st89{fill:#E2871A;}
	.st90{fill:#7EC6ED;}
	.st91{fill:#253051;}
	.st92{fill:url(#SVGID_20_);}
	.st93{fill:url(#SVGID_21_);}
	.st94{fill:#FCF8FF;}
	.st95{fill:#E0E0E0;}
	.st96{fill:url(#SVGID_22_);}
	.st97{opacity:0.6;}
	.st98{opacity:0.6;fill:url(#SVGID_23_);}
	.st99{opacity:0.6;fill:url(#SVGID_24_);}
	.st100{opacity:0.6;fill:url(#SVGID_25_);}
	.st101{opacity:0.6;fill:url(#SVGID_26_);}
	.st102{opacity:0.6;fill:url(#SVGID_27_);}
	.st103{opacity:0.6;fill:url(#SVGID_28_);}
	.st104{fill:url(#SVGID_29_);}
	.st105{opacity:0.6;fill:url(#SVGID_30_);}
	.st106{opacity:0.6;fill:url(#SVGID_31_);}
	.st107{opacity:0.6;fill:url(#SVGID_32_);}
	.st108{opacity:0.6;fill:url(#SVGID_33_);}
	.st109{opacity:0.6;fill:url(#SVGID_34_);}
	.st110{opacity:0.6;fill:url(#SVGID_35_);}
	.st111{fill:url(#SVGID_36_);}
	.st112{opacity:0.6;fill:url(#SVGID_37_);}
	.st113{opacity:0.6;fill:url(#SVGID_38_);}
	.st114{opacity:0.6;fill:url(#SVGID_39_);}
	.st115{opacity:0.6;fill:url(#SVGID_40_);}
	.st116{opacity:0.6;fill:url(#SVGID_41_);}
	.st117{opacity:0.6;fill:url(#SVGID_42_);}
	.st118{opacity:0.5;}
	.st119{fill:url(#SVGID_43_);}
	.st120{opacity:0.6;fill:url(#SVGID_44_);}
	.st121{fill:#E94B26;stroke:#E84C25;stroke-width:5;stroke-miterlimit:10;}
	.st122{fill:url(#SVGID_45_);}
	.st123{opacity:0.6;fill:url(#SVGID_46_);}
	.st124{fill:none;stroke:#322D4E;stroke-width:6;stroke-linecap:round;stroke-miterlimit:10;stroke-dasharray:29.1424,31.1522;}
	.st125{fill:#6359C1;}
	.st126{fill:none;stroke:#322D4E;stroke-width:16;stroke-linecap:round;stroke-linejoin:round;stroke-miterlimit:10;}
	.st127{fill:#9696EA;}
	.st128{fill:none;stroke:#FFFFFF;stroke-width:7;stroke-miterlimit:10;}
	.st129{fill:none;stroke:#FFFFFF;stroke-width:5;stroke-miterlimit:10;}
	.st130{fill:#322D4E;stroke:#322D4E;stroke-width:4;stroke-miterlimit:10;}
	.st131{fill:#FF471A;}
	.st132{fill:#F8F8F8;}
	.st133{fill:none;stroke:#F8F8F8;stroke-miterlimit:10;}
	.st134{clip-path:url(#SVGID_48_);}
	.st135{fill:#288EF1;}
	.st136{clip-path:url(#SVGID_50_);}
	.st137{fill:none;stroke:#3C395B;stroke-width:63;stroke-linecap:round;stroke-linejoin:round;stroke-miterlimit:10;}
	.st138{fill:#3C395B;}
	.st139{fill:#434266;}
	.st140{fill:#201F35;}
	.st141{fill:#EA94A2;}
	.st142{fill:#FEC4CA;}
	.st143{fill:none;stroke:#201D35;stroke-width:14;stroke-linecap:round;stroke-miterlimit:10;}
	.st144{fill:none;stroke:#211F35;stroke-width:3;stroke-miterlimit:10;}
	.st145{fill:none;stroke:#211F35;stroke-width:3;stroke-linecap:round;stroke-miterlimit:10;}
	.st146{fill:none;stroke:#322D4E;stroke-width:63;stroke-linecap:round;stroke-linejoin:round;stroke-miterlimit:10;}
	.st147{fill:none;stroke:#FFFFFF;stroke-width:5;stroke-linecap:round;stroke-miterlimit:10;}
	.st148{fill:#E88B9D;}
	.st149{fill:#F7F7F7;}
	.st150{fill:none;stroke:#FFF8F9;stroke-width:87;stroke-linecap:round;stroke-miterlimit:10;}
	.st151{opacity:0.37;}
	.st152{opacity:0.12;}
	.st153{fill:#3B3C5C;}
	.st154{fill:none;stroke:#FFFFFF;stroke-width:17;stroke-miterlimit:10;}
	.st155{fill:none;stroke:#3C3C5C;stroke-width:15;stroke-miterlimit:10;}
	.st156{fill:#F5F5F5;}
</style>
<g>
	<path class="st82" d="M2566.8,976.5c0,0-81-174.9-282.7-226.2c-201.7-51.3-426.6-113-561.6-232.1s-380.8-538.8-1037.6-294
		C-6.1,481.7-52.3,1257.9,444.6,1641c505.5,389.8,1383.5,465.6,1961-80.1C2735.9,1248.8,2566.8,976.5,2566.8,976.5z"/>
	<g>
		<defs>
			<path id="SVGID_47_" d="M2566.8,976.5c0,0-81-174.9-282.7-226.2c-201.7-51.3-426.6-113-561.6-232.1s-380.8-538.8-1037.6-294
				C-6.1,481.7-52.3,1257.9,444.6,1641c505.5,389.8,1383.5,465.6,1961-80.1C2735.9,1248.8,2566.8,976.5,2566.8,976.5z"/>
		</defs>
		<clipPath id="SVGID_2_">
			<use xlink:href="#SVGID_47_"  style="overflow:visible;"/>
		</clipPath>
		<g style="clip-path:url(#SVGID_2_);">
			<g id="XMLID_4_">
				<g id="XMLID_251_">
					<path class="st135" d="M2656.7,1008.6c19.4-33.4,15.4-66.3-9.7-79.8c-21.8-11.8-63.7,4.2-78,29.7
						c-13.7,24.3-2.9,59.5,22.1,72.3C2617,1043.9,2640.8,1035.9,2656.7,1008.6z"/>
				</g>
				<g id="XMLID_236_">
					<path class="st135" d="M536.6,901.2c12.8,6.5,25.4,14.4,40.2,9.2c19.6-6.8,10.4-22.1,10.3-35.5c-0.1-11.8,4.4-23.5,5.5-35.4
						c3-33.6-9.3-48.3-42.5-51.9c-27-3-40.5,10.6-42.8,44.9C505.3,860.2,513.4,884.2,536.6,901.2z"/>
				</g>
				<g id="XMLID_235_">
					<path class="st135" d="M1948.9,1454.7c30.2-36.7,64.2-27.2,97.7-41.9c-39.4-14.3-69.4-8.4-98.5,5.7
						c-28.8,13.9-39.4,39.4-28.1,64c10.7,23.2,47.5,39.5,70.9,31.2c3.8-1.3,7.8-2.6,11.1-4.8c16.8-11.3,37.1-25.8,28.3-46.5
						c-7.7-18.1-29.4-25.6-51.4-15C1973.9,1449.9,1968,1450.2,1948.9,1454.7z"/>
				</g>
				<g id="XMLID_227_">
					<path class="st135" d="M1108.6,1585c15.3,7.3,29.9,25,47.2,3c26.9-34.1,28.6-77.1,3.6-97.7c-20.7-17.1-46.3-13.3-63,9.2
						C1074.6,1528.7,1079.6,1563,1108.6,1585z"/>
				</g>
				<g id="XMLID_221_">
					<path class="st135" d="M1968.2,1165.5c-20.2,28.8-16.5,41.7,19.6,67.3c20.8,14.7,58,9.2,69.8-10.4
						c14.8-24.7,5.7-51.1-24.9-71.8C2003.3,1130.5,1990.8,1133.4,1968.2,1165.5z"/>
				</g>
				<g id="XMLID_216_">
					<path class="st135" d="M1330.1,1388.2c21.5-33.3,22.5-72.6,4.8-85.6c-19.9-14.7-51.1-5.7-67,19.2c-18.7,29.5-13,60.3,15.3,78.8
						C1306.3,1415.7,1319.9,1400.2,1330.1,1388.2z"/>
				</g>
				<g id="XMLID_213_">
					<path class="st135" d="M1050.6,565.7c2.8,2,10.2,10.2,19.4,13.3c21.7,7.3,45.4,11.5,59.9-12.2c13.5-22.1,4.7-43.8-11.2-61.1
						c-21.3-23.2-82.1-12.4-95.8,16C1015.3,536.9,1020.8,547.1,1050.6,565.7z"/>
				</g>
				<g id="XMLID_212_">
					<path class="st135" d="M1292.3,1732.6c-26.4-18-50.7-16.6-63.6,3.7c-12.7,20.1-4.9,66.3,13.1,77.5
						c18.7,11.6,57.7,3.3,71.9-15.3C1329.1,1778.5,1320.5,1751.9,1292.3,1732.6z"/>
				</g>
				<g id="XMLID_211_">
					<path class="st135" d="M1010.3,1277.4c-20.7,28.1-19.1,48.6,5.1,66c23.5,17,52,13,67.5-13.9c9.7-16.9,31.7-36.9,6-58.5
						C1062.2,1248.6,1029.2,1251.6,1010.3,1277.4z"/>
				</g>
				<g id="XMLID_204_">
					<path class="st135" d="M1689.8,1093.2c-17.1,30.1-12.4,51.7,14.5,66c26.3,14,53.1,9.5,63.7-10.7c11.1-21.3-0.3-72.6-18-81.2
						C1728.9,1057.1,1704.2,1067.7,1689.8,1093.2z"/>
				</g>
				<g id="XMLID_202_">
					<path class="st135" d="M787.5,1281.8c21.8,16.9,51.9,12,68.8-11.1c10.7-14.7-0.4-57.8-18.1-69.9c-17.8-12.2-52.5-5.6-66.4,12.4
						C755.6,1234.3,761.9,1262,787.5,1281.8z"/>
				</g>
				<g id="XMLID_201_">
					<path class="st135" d="M2717.6,1206c-18.1-14.3-63.8-4.9-82,16.9c-16.4,19.7-14.3,44.8,4.8,58.2c23.9,16.7,58.7,15.6,72-2.4
						C2723.8,1263.2,2727.3,1213.7,2717.6,1206z"/>
				</g>
				<g id="XMLID_198_">
					<path class="st135" d="M586.3,1047.4c-24.5,32.8-21.6,66.6,3.9,84.3c20.6,14.2,44.7,10.1,57.7-9.9c12.4-19.1,9.3-85.9-5.7-90.2
						C619.3,1025,598.8,1032.5,586.3,1047.4z"/>
				</g>
				<g id="XMLID_196_">
					<path class="st135" d="M1506.3,831.1c-21.5,29.8-23.8,63.9-5.1,75.9c23.6,15.1,62.8,15.8,72.6,1.4c15.4-22.6,5.8-63.9-19-82
						C1537.6,813.9,1517.3,815.9,1506.3,831.1z"/>
				</g>
				<g id="XMLID_193_">
					<path class="st135" d="M2303.3,983.5c13,8.5,38.1,64.4,33.2,74c-5.7,11.1-71.3,29-83.6,22.8c-17.4-8.9-22.3-60.4-7.9-83.3
						C2257.2,977.4,2284.3,971.2,2303.3,983.5z M2305.2,1007.8c-4.4-14.9-15-8-22.3-5.2c-7.6,2.8-12,9.8-9.8,19.2
						C2284.5,1019.2,2296.1,1016.9,2305.2,1007.8z"/>
				</g>
				<g id="XMLID_190_">
					<path class="st135" d="M2457.7,1850.1c-15.1,20.1-13.6,56,2.8,66.8c17.7,11.6,63,2.8,79.4-15.4c11.7-13-2.2-52.3-23.7-66.8
						C2499.1,1823.1,2472.7,1830.1,2457.7,1850.1z"/>
				</g>
				<g id="XMLID_186_">
					<path class="st135" d="M2438.5,1330.5c10.9,7.6,48.4-9.7,60.2-27.8c12.7-19.4,9.3-48.4-6.7-58.4c-25-15.6-59.1-13.6-71.1,4.2
						C2406.5,1269.5,2416.3,1314.9,2438.5,1330.5z"/>
				</g>
				<g id="XMLID_185_">
					<path class="st135" d="M64.4,652.7c11.8-13.7,12.4-30.1,12.2-46.3c-0.2-22.5-17.7-31.3-35-35.8c-14.5-3.9-27.2,4.7-33.5,19.2
						c-4,9.2-5.3,19.8-10.6,28c-7.1,10.9-29.9,17.6-19.6,32.4c12.6,18,37.3,23.6,58.9,24.3C45.8,674.8,55.2,660.4,64.4,652.7z"/>
				</g>
				<g id="XMLID_184_">
					<path class="st135" d="M1774.1,1342.6c-31-24.6-66.2-25.9-81.7-6.7c-16.7,20.5-10.5,69,13,81.9c24.8,13.6,45-4.8,55.7-21.8
						C1770.6,1381,1794.5,1361.2,1774.1,1342.6z"/>
				</g>
				<g id="XMLID_174_">
					<path class="st135" d="M119.1,215.3c-13.7,19.1-12.3,60.7,2.5,73c15.1,12.5,53.5-0.3,67.9-22.7c14.6-22.7,11.5-52.9-6.7-64.6
						C162.5,187.9,134.2,194.3,119.1,215.3z"/>
				</g>
				<g id="XMLID_171_">
					<path class="st135" d="M199.6,1070.8c-14.7-11.1-44.6-4.5-59.6,13.3c-14.7,17.4-10,65.8,7.6,78.5c14.6,10.5,47.3,2.5,59.6-14.6
						C225.1,1123.2,221.6,1087.5,199.6,1070.8z"/>
				</g>
				<g id="XMLID_170_">
					<path class="st135" d="M1698.1,1753.9c-15.8-13.4-52.1-11.5-66.7,3.6c-20.1,20.7-17.7,56.7,4.9,74.6c20.2,16,43.1,13.6,58-6
						C1708.9,1806.9,1711.2,1765.1,1698.1,1753.9z"/>
				</g>
				<g id="XMLID_164_">
					<path class="st135" d="M1520.2,1766.3c3-9.4,14.8-18.3,4.2-31.8c-11.1-14.1-24.4-21.5-42.1-18.4c-18.1,3.2-36.9,6.9-42.1,28.7
						c-2.8,11.8-5.3,24.1-5,36.2c0.8,28.9,19.4,38.7,45.4,24.1C1496.5,1796,1510.9,1784.5,1520.2,1766.3z"/>
				</g>
				<g id="XMLID_153_">
					<path class="st135" d="M486.9,642c11.9-14.9,8.2-33.1,5.3-51.3c-2.8-18.1-17.7-20.3-31.3-24c-13.2-3.6-22.8,0.5-31.3,12
						c-17.4,23.6-16.3,64.6,3.7,84.7C448.6,678.8,471.3,670.3,486.9,642z"/>
				</g>
				<g id="XMLID_147_">
					<path class="st135" d="M2173,1274.4c-15.4,19.4-13.8,52.5,3.2,66.4c17.6,14.4,54.8,11.9,67.2-4.5c14.1-18.6,8.3-58.4-10.7-72.6
						C2215.6,1250.8,2187.7,1255.8,2173,1274.4z"/>
				</g>
				<g id="XMLID_144_">
					<path class="st135" d="M2744.5,1402.4c-12.1,15.5-19.5,31.3,0.7,46c20.7,15.1,61.4,10.3,77.1-8.3c14.5-17.1,11.7-44.4-6.1-58.5
						C2795.3,1365.1,2766.2,1373.5,2744.5,1402.4z"/>
				</g>
				<g id="XMLID_140_">
					<path class="st135" d="M673.3,274.7c19.1,14.1,61.6,2,77.5-20.3c14.7-20.6,11.3-46.1-7.8-59.1c-18-12.2-51.8-4.2-62.8,18.8
						C671.3,232.8,657.8,253.9,673.3,274.7z"/>
				</g>
				<g id="XMLID_139_">
					<path class="st135" d="M981.1,1763.6c-19,33.5-16.4,61,11.2,74.8c32.4,16.3,39.8-14.7,51.1-33.3c18.6-30.5,15.5-46.4-8.2-60.9
						C1014.7,1731.7,995.2,1738.7,981.1,1763.6z"/>
				</g>
				<g id="XMLID_135_">
					<path class="st135" d="M1311.5,156.2c8.7,13.4,16.5,27.5,26.3,40.2c17.1,22.1,39.9,19,59.7,6.7c20.8-12.9,17.5-36.5,10.5-54.7
						c-9.2-24.2-34.3-27.5-49.2-11.7C1344.2,152.2,1319.9,132.4,1311.5,156.2z"/>
				</g>
				<g id="XMLID_134_">
					<path class="st135" d="M395.2,924.3c-17-12.5-45.5-7.4-59.7,10.7c-15.4,19.6-12.4,59.8,5.5,72c15.3,10.4,48.1,2,59.7-15.5
						C414.3,971.4,411.4,936.2,395.2,924.3z"/>
				</g>
				<g id="XMLID_132_">
					<path class="st135" d="M187.3-11.5c-17.4,24.9-18.3,62.6-2.9,75.1c12.8,10.4,41-1,56.6-22.8c17.2-24.1,15.7-58.8-4-69.9
						C213.1-42.8,199.6-25.6,187.3-11.5z"/>
				</g>
				<g id="XMLID_127_">
					<path class="st135" d="M1119.1,146.8c8.4,7.1,17.5,9.1,27.7,4.1c17-8.4,29.2-21.2,33.9-39.9c6.2-24.9-12.2-59.6-33-63.1
						c-21.6-3.6-37.8,16-40.3,48.8C1104.9,127.6,1107.1,136.9,1119.1,146.8z"/>
				</g>
				<g id="XMLID_124_">
					<path class="st135" d="M946.7,426.7c16-18.4,17.1-37.2-2.4-52.9c-17.6-14.3-52.2-8.6-66.6,9.1c-13.8,16.9-14.1,58.5-0.4,67.4
						C896,462.2,927.2,451.7,946.7,426.7z"/>
				</g>
				<g id="XMLID_123_">
					<path class="st135" d="M533.8,69c-14.7-10.3-47.2-3.3-60.3,12.9c-12.6,15.6-6.1,65.1,11.2,70.8c20,6.5,39.5,2.5,52.3-17.7
						C551.5,112.1,550.2,80.4,533.8,69z"/>
				</g>
				<g id="XMLID_120_">
					<path class="st135" d="M1786.2,890.8c18,14,40.2,10.7,53.1-7.9c13.9-19.9,9.1-52.3-9.7-65.8c-18.9-13.6-51.8-12.5-62.1,2.1
						C1755.7,835.9,1765.9,875,1786.2,890.8z"/>
				</g>
				<g id="XMLID_119_">
					<path class="st135" d="M2333.1,787.8c18.3-17.7,29.4-37.7-2-55.3c-24-13.4-57.4-4-69.4,18.2c-10.6,19.5,4.1,48.2,33.5,62.5
						C2318.8,824.7,2328.5,810.9,2333.1,787.8z"/>
				</g>
				<g id="XMLID_116_">
					<path class="st135" d="M1067.7,775.5c-15.1-23.9-29.8-47.7-58.9-57.6c-28.9-9.9-48.5,5.5-44.7,35.7
						C970.1,800.3,1016.6,810.4,1067.7,775.5z"/>
				</g>
				<g id="XMLID_114_">
					<path class="st135" d="M1638,598c-15.8,20.2-15.7,46.3,1.4,59.3c17.3,13.2,35.8,21.6,53.1-0.3c13.2-16.8,16.6-66.7,5.8-75.1
						C1685.4,572.1,1651.2,581.2,1638,598z"/>
				</g>
				<g id="XMLID_112_">
					<path class="st135" d="M420.1,1203.8c-13.2-12.2-45.3-6-59.7,11.6c-15.5,18.9-17.1,56.1-0.8,66.7c18.7,12.1,38.8,9.7,55.8-5.4
						C431.7,1262.3,434.1,1216.9,420.1,1203.8z"/>
				</g>
				<g id="XMLID_111_">
					<path class="st135" d="M599.5,1385.8c18.8,5.3,38.7,12.2,54.1-8.6c12.9-17.4,10.5-63.5-3.4-73.3c-15.5-11-46.9-2.6-58.3,15.6
						C577.6,1342.4,580.9,1374.2,599.5,1385.8z"/>
				</g>
				<g id="XMLID_109_">
					<path class="st135" d="M1207.7,819.8c-18.9,21.9-25.3,38-15,56.8c6.8,12.4,18.1,14.5,31,13.4c20.4-1.6,36-11.8,39.9-31.2
						c4.2-20.7,16.2-49.6-3.8-61.8C1233.8,781.4,1217.5,809.2,1207.7,819.8z"/>
				</g>
				<g id="XMLID_107_">
					<path class="st135" d="M777,878.9c-10.6,18.5-0.7,60.8,16.8,72c14.8,9.5,57.4-9.6,65.1-31.5c8.7-24.8-11-37-27.7-47.4
						C810.6,859.3,785.7,863.7,777,878.9z"/>
				</g>
				<g id="XMLID_106_">
					<path class="st135" d="M1001.5,1070.8c17.2,11.6,35.1,11.6,50.1-1.9c18.9-16.9,18-62.8-0.8-77.2c-19.8-15.1-37.3-8.8-52.5,8.7
						C980.1,1021.3,981.5,1053.8,1001.5,1070.8z"/>
				</g>
				<g id="XMLID_104_">
					<path class="st135" d="M1647.5,350.4c-27.9-14.4-45.8-7.9-63.6-5.7c-18.8,2.3-37.5,6.6-38,30.7c-0.4,19.8,8.6,35.7,27.6,42.9
						c21.6,8.2,38.6,0.7,53.4-16.9C1640,386.1,1625.3,364.6,1647.5,350.4z"/>
				</g>
				<g id="XMLID_101_">
					<path class="st135" d="M385,1465.3c-11.4,14.5-12.9,77-1,85.2c17.4,11.9,33.9,9.3,47.5-7.4c18.5-22.6,16.7-67.9-3.3-82.3
						C414.6,1450.9,394.7,1453,385,1465.3z"/>
				</g>
				<g id="XMLID_100_">
					<path class="st135" d="M-33.1,148.5c4.8,0.3,10.8,2,16.2,0.8c26.8-5.8,47.6-40.2,39-65.5C14.7,62.5-1.2,51.1-24.3,54.6
						c-19.9,3-24.5,18.4-24,36C-47.7,110.5-49.6,131.1-33.1,148.5z"/>
				</g>
				<g id="XMLID_96_">
					<path class="st135" d="M740.6,631.5c-9.7,20.6-4.4,42.1,7.5,61.8c10.8,17.9,25.5,33,49.4,28.9c13.5-2.3,20.5-12.1,20.6-26.1
						c0.1-19-29.9-74.8-42.6-77.2C762.9,616.5,751.1,619.6,740.6,631.5z"/>
				</g>
				<g id="XMLID_95_">
					<path class="st135" d="M1776.9,1549.5c-13.9-9.1-30.4-10.6-43.3,9c-12.2,18.5-8.3,62,5.8,74c15.6,13.2,36.8,8.3,51.9-12
						C1809.6,1595.7,1805.5,1569.5,1776.9,1549.5z"/>
				</g>
				<g id="XMLID_92_">
					<path class="st135" d="M1481.9,1170.7c-13.3,18.7-16.4,36.9,4.8,51.9c19.6,13.9,51.5,5.2,68.3-18.7
						c12.1-17.1,9.8-34.2-5.4-48.1C1532.8,1140.4,1498.1,1148.5,1481.9,1170.7z"/>
				</g>
				<g id="XMLID_91_">
					<path class="st135" d="M1969.1,912.3c-10,18.9-3.6,35.9,14.1,50.3c20.9,17,42.3,15.6,58.4-3.6c16.3-19.5,11.1-38-5.1-53.3
						C2018.9,889,1983.7,892.3,1969.1,912.3z"/>
				</g>
				<g id="XMLID_79_">
					<path class="st135" d="M1547.9,1508c-18.9-15.1-54-15.7-63.4-3c-11.6,15.5-4.7,63.6,11.9,71.9c21.9,11,39.2-1.3,52-17.3
						C1562.4,1542.1,1562.9,1523,1547.9,1508z"/>
				</g>
				<g id="XMLID_70_">
					<path class="st135" d="M896.1,230.2c12.4,9.2,22.5,5.2,31.3-5.5c17.7-21.6,21.1-67.3,4.6-77.8c-17.5-11.2-34.7-9-48.1,8.1
						C867.5,175.8,873.8,213.9,896.1,230.2z"/>
				</g>
				<g id="XMLID_69_">
					<path class="st135" d="M1413.2,623.3c-15.4-19.3-27.2-10.5-38.2,4.9c-17,23.9-17.8,57.9,0.3,65.2c19.7,8,40.7,5.7,55.8-11.4
						C1448,662.6,1441.1,642.4,1413.2,623.3z"/>
				</g>
				<g id="XMLID_61_">
					<path class="st135" d="M576.3,1569.8c-10.4,15.1-10.9,33.9,9,48.3c18.3,13.3,37.5,13.6,52.9-5.7c14.7-18.5,13.9-49.2-0.6-60
						C621.3,1540.3,593.6,1546.7,576.3,1569.8z"/>
				</g>
				<g id="XMLID_60_">
					<path class="st135" d="M599,504.9c35.2,9.2,60.9,27.3,84.5-3.4c12.2-15.8,14.8-33,4.4-51c-8.1-14.2-20.9-18.6-36.2-16
						c-14.5,2.5-22.4,13-17.9,26.2C642.9,487.5,618.6,487.8,599,504.9z"/>
				</g>
				<g id="XMLID_57_">
					<path class="st135" d="M1166.3,1932.6c-21.1-12.2-46-2.3-56.7,21.7c-9.7,21.7-9.5,46.1,11.4,59.3c24.5,15.6,34.6-9.6,44.8-25.3
						C1178.1,1969.4,1186.3,1948.8,1166.3,1932.6z"/>
				</g>
				<g id="XMLID_56_">
					<path class="st135" d="M226.9,722.6c-11.4,14.9-8.2,45.2,5.9,55.4c13.9,10,44.1,4.2,54.9-10.6c13.7-18.8,10.2-47.9-7.4-59.9
						C266.8,698.2,239.7,705.9,226.9,722.6z"/>
				</g>
				<g id="XMLID_54_">
					<path class="st135" d="M867.2,1560.2c-11.6,17.2-7.3,46.9,7.1,56.9c15.1,10.4,44.5-0.9,56.8-22.2c11-19.1,7.4-36.1-11.2-47.3
						C898.4,1534.5,881.3,1545.5,867.2,1560.2z"/>
				</g>
				<g id="XMLID_53_">
					<path class="st135" d="M1342.2,1090c-1-26.1-12.6-42-40.6-42.4c-25.1-0.4-29.4,18.9-32.3,36.6c-4.3,25.9,15.8,38.6,33,51.9
						c12.2,9.4,26,13,38.2,0.5c14.9-15.3,16.1-31.9,1.1-48.2c0.4,6.1,1.9,12.2,1,18.1c-1.2,8.2-5.1,16.1-14.9,15.5
						c-8.4-0.5-15.8-5.7-16.9-14.4c-1.1-9.2,6.3-14.1,14.1-16.4C1330.3,1089.5,1336.4,1090.3,1342.2,1090z"/>
				</g>
				<g id="XMLID_50_">
					<path class="st135" d="M272.4,465.8c-23-17.8-49.8-16.3-63.4,0.4c-15,18.4-12.2,44.3,6.3,58.4c18.1,13.9,41.9,8.5,56.6-13.7
						C282.6,494.5,284.5,477.8,272.4,465.8z"/>
				</g>
				<g id="XMLID_46_">
					<path class="st135" d="M1940.4,676.1c17.5,12.1,36.9,4.7,52.8-20.6c10.3-16.3,6.8-30.2-9.5-40.3c-19.9-12.4-57.9-9.7-65.7,4.5
						C1909.5,635.2,1920.1,662.1,1940.4,676.1z"/>
				</g>
				<g id="XMLID_45_">
					<path class="st135" d="M8,900.5c-1.7,4.6-8.6,15.6-9.5,27.2c-1.4,16.6,5.6,34.4,22,38.8c17.2,4.6,27.2-9.3,36.8-24.2
						c12.2-19-4.9-37.3,4-56.5c4.1-8.9-11.7-14-21.9-12.7C26.6,874.8,17.8,883.3,8,900.5z"/>
				</g>
				<g id="XMLID_44_">
					<path class="st135" d="M1166,307c-19.2-1.8-24.5-11-24.2-25c0.2-9.2-3.1-16.2-13.6-12.9c-5.2,1.6-10.9,5.9-13.6,10.5
						c-6.1,10.4,11,85.2,20.8,89.3c17.6,7.5,30.8-4.3,42.6-14.3c11.8-10,15.4-24,4.4-37.1C1177.7,311.8,1169.4,309.1,1166,307z"/>
				</g>
				<g id="XMLID_43_">
					<path class="st135" d="M426.3,339c-7.9,11.2-0.3,51.5,11.4,60.7c20,15.7,42.8,8.7,60.9-16.7c14.8-20.7,4.2-33.6-11.6-45.1
						C467.7,323.9,436.1,324.9,426.3,339z"/>
				</g>
				<g id="XMLID_38_">
					<path class="st135" d="M1312.7,496c12.5,10.5,42.1,4.4,54.4-11.2c11.6-14.8,8.5-50.8-6.5-60.5c-15.2-9.9-30.8-8.7-43.9,4.8
						C1301.3,444.7,1299.2,484.6,1312.7,496z"/>
				</g>
				<g id="XMLID_34_">
					<path class="st135" d="M1895.6,1831.9c-16.7-9.3-60,3.2-69.9,21.2c-9.5,17.4-8.9,36,7.5,48.1c13.1,9.6,58.9-17.1,69.3-37.9
						C1908.7,1850.8,1907.3,1840.2,1895.6,1831.9z"/>
				</g>
				<g id="XMLID_33_">
					<path class="st135" d="M2860,1213.9c-8.8,16.8-22.5,32.9,0.1,47.8c18.7,12.3,42.7,5.3,57.5-15.8c12.6-18,9.6-44.5-7.8-52.4
						C2886.5,1183,2872.2,1198.1,2860,1213.9z"/>
				</g>
				<g id="XMLID_32_">
					<path class="st135" d="M2488.6,1667.6c-4.4,13.6-4.4,27.4,9.7,36.3c14.4,9.1,64.9-3.6,71.2-17.9c6.6-14.8,1.1-27.3-11.7-36.5
						C2539.4,1636.4,2501.3,1646,2488.6,1667.6z"/>
				</g>
				<g id="XMLID_31_">
					<path class="st135" d="M2301.7,1994.9c8.3-14.4,14.1-31.9-6-45c-15.6-10.1-49.1,2-58.6,20c-10.4,19.8-1.4,35.5,13.7,47.8
						C2265.3,2029.5,2284.2,2021.2,2301.7,1994.9z"/>
				</g>
				<g id="XMLID_22_">
					<path class="st135" d="M2343.9,1700.7c-16.7-11-40.6-4.5-51.1,15.6c-8.3,16-15.8,34.1-2.1,50.5c10,12,43.6,0.5,57.1-18.2
						C2360.5,1731,2358.9,1710.5,2343.9,1700.7z"/>
				</g>
				<g id="XMLID_20_">
					<path class="st135" d="M1963.8,1674.1c-7.4,15.5-18.6,36.3-2.9,57.1c9.1,12,41.8,1.4,51.1-16.5c8.5-16.3,15.1-35.7-5.4-47.3
						C1995,1660.7,1978.1,1646.8,1963.8,1674.1z"/>
				</g>
				<g id="XMLID_18_">
					<path class="st135" d="M1650,1981.7c-15.3-7.7-30.5-12.3-43.7,3.6c-12.6,15.1-10.6,46.5,3.9,54.9c19.4,11.3,37.6,1.1,49.3-11.4
						C1674.8,2012.5,1665.5,1995.2,1650,1981.7z"/>
				</g>
				<g id="XMLID_17_">
					<path class="st135" d="M776,1715.8c-3.1,28.7-21.6,57.4,13.7,71.6c18.6,7.5,35.5-1.6,42.3-22.5
						C840,1740.4,828.3,1729.7,776,1715.8z"/>
				</g>
				<g id="XMLID_13_">
					<path class="st135" d="M1395.7,2015.8c17.1,10.9,29.8,1.3,40.1-11.8c14.1-17.9,8.9-40.9-11.7-57.4c-11.4-9.1-22.1-7.5-30.9,3.2
						C1377.6,1969,1378.9,2003.1,1395.7,2015.8z"/>
				</g>
				<g id="XMLID_12_">
					<path class="st135" d="M2097.6,1869.2c-9,16.5-16.1,35.2,1,49.5c18.3,15.4,35,3.3,46.9-11.9c10.5-13.4,16-30.4,0.6-43.8
						C2129.4,1848.5,2112.4,1852.4,2097.6,1869.2z"/>
				</g>
				<g id="XMLID_11_">
					<path class="st135" d="M2298.4,1460.5c-15.3,17.3-6.8,46.2,9.6,49.8c12.2,2.6,24.4,0.4,35.3-5.6c16.6-9,23.1-23.3,15.9-40.9
						c-6.4-15.7-18.8-9.9-30.8-6.1C2317.3,1461.1,2303.8,1454.2,2298.4,1460.5z"/>
				</g>
				<g id="XMLID_10_">
					<path class="st135" d="M1955,1952.1c-9.5,18.9-18.7,35.8-5.4,52.4c9.6,12,34.5-0.1,48.9-20.6c13-18.6,8.9-36.2-6.6-47.1
						C1973,1923.4,1966.7,1948.7,1955,1952.1z"/>
				</g>
				<g id="XMLID_9_">
					<path class="st135" d="M2513.6,1509.5c-8.8-8.4-12.3-13.8-17.2-16.2c-13.1-6.4-14-32.1-36.2-23.3c-7.4,2.9-14.8,52.3-8.7,60.9
						c6.4,9,17.5,11.6,26.2,6.7C2489.6,1531,2499.5,1520.9,2513.6,1509.5z"/>
				</g>
				<g id="XMLID_8_">
					<path class="st135" d="M2186.6,1594c-25.9-11.6-35.2,7.8-48,19.5c-16.9,15.6-2.1,27.9,7.7,33.7c17.1,10.1,30.8-4.3,40.8-16.2
						C2197.3,1618.9,2193.8,1604.7,2186.6,1594z"/>
				</g>
			</g>
			<path class="st135" d="M998.6,430.8c0,0-174,33-266.8,245.2s-91.5,372.2,62.2,428.1c153.7,55.9,249-6.4,262.9-147.4
				c14-141,57.2-237.5,101.6-282C1203.1,630.2,1220.9,395.2,998.6,430.8z"/>
		</g>
	</g>
	<g>
		<defs>
			<path id="SVGID_49_" d="M2566.8,976.5c0,0-81-174.9-282.7-226.2c-201.7-51.3,162.5-662.7,27.5-781.8
				c-135-119.1-969.9,10.9-1626.8,255.7C-6.1,481.7-52.3,1257.9,444.6,1641c494.8,381.5,1346.3,462.2,1923.7-46.1
				c104.7-1.9,196.6-4.9,305.9-2.3c162.7,3.9,327.3,13.9,334.7,7C3339.2,1287.4,2566.8,976.5,2566.8,976.5z"/>
		</defs>
		<clipPath id="SVGID_3_">
			<use xlink:href="#SVGID_49_"  style="overflow:visible;"/>
		</clipPath>
		<g style="clip-path:url(#SVGID_3_);">
			<path class="st58" d="M2029.4,1343.8h-171.6c-106.8,0-193.4-86.6-193.4-193.4V888c0-106.8,86.6-193.4,193.4-193.4h171.6
				c106.8,0,193.4,86.6,193.4,193.4v262.4C2222.7,1257.2,2136.2,1343.8,2029.4,1343.8z"/>
			<rect x="1748.8" y="837.8" class="st2" width="380.7" height="476.8"/>
			<path class="st35" d="M1866.4,667L1866.4,667c11.3,0,20.4-9.1,20.4-20.4v-43.3c0-11.3-9.1-20.4-20.4-20.4l0,0
				c-11.3,0-20.4,9.1-20.4,20.4v43.3C1846,657.9,1855.2,667,1866.4,667z"/>
			<path class="st35" d="M2017.8,694.7L2017.8,694.7c11.3,0,20.4-9.1,20.4-20.4v-43.3c0-11.3-9.1-20.4-20.4-20.4l0,0
				c-11.3,0-20.4,9.1-20.4,20.4v43.3C1997.4,685.5,2006.6,694.7,2017.8,694.7z"/>
			<g>
				<path class="st35" d="M1815,936.3l-202.7,131.4c-28,18.2-65.5,10.2-83.7-17.9c-16.9-26.1-10.9-60.6,12.6-79.9l187.3-152.6
					c31.5-25.7,77.9-20.9,103.6,10.6c25.7,31.5,20.9,77.9-10.6,103.6C1819.4,933.3,1817.2,934.9,1815,936.3z"/>
			</g>
			<path class="st35" d="M1876.2,1314.5h-151.4L1673.1,936c-1.2-49.2,66.4-98.2,115.7-98.2h87.4V1314.5z"/>
			<path class="st2" d="M1919.2,1314.5h-67.3l-4-387c-0.5-49.2,15.6-89.8,35.7-89.8h35.6V1314.5z"/>
			<line class="st137" x1="1860.9" y1="813" x2="1815.7" y2="871.7"/>
			<path class="st35" d="M2012.2,1314.5h168.9l48.4-366.6c1.2-49.2-80.6-110.1-129.9-110.1h-87.4V1314.5z"/>
			<g>
				<path class="st35" d="M2160.4,817.5L2347.7,970c25.9,21.1,29.8,59.2,8.7,85.2c-19.6,24.1-54.3,29-79.9,12.6l-202.7-131.4
					c-34.1-22.1-43.8-67.7-21.7-101.8c22.1-34.1,67.7-43.8,101.8-21.7C2156.2,814.2,2158.4,815.8,2160.4,817.5z"/>
			</g>
			<line class="st137" x1="2020.7" y1="813.7" x2="2067.6" y2="871"/>
			<path class="st2" d="M1969.3,1314.5h67.3l4-387c0.5-49.2-15.6-89.8-35.7-89.8h-35.6V1314.5z"/>
			<path class="st138" d="M859.2,1457.5l-369.4,436l1427,366l788-366l-44.8-400.6c0,0-326.6-297-339.6-298.2
				C2307.4,1193.6,859.2,1457.5,859.2,1457.5z"/>
			<path class="st139" d="M866.3,1482.7L1048,1292c49.1-51.5,116.8-81.2,188-82.4l1324.8-22.6c70.2-1.2,138,25.4,188.6,74
				l213.1,204.3c47.2,45.2,15.5,124.9-49.9,125.4l-1993.1,15.1C855.2,1606.3,821.9,1529.3,866.3,1482.7z"/>
			<path class="st138" d="M866.3,1449l181.8-190.7c49.1-51.5,116.8-81.2,188-82.4l1324.8-22.6c70.2-1.2,138,25.4,188.6,74
				l213.1,204.3c47.2,45.2,15.5,124.9-49.9,125.4l-1993.1,15.1C855.2,1572.6,821.9,1495.6,866.3,1449z"/>
			<g>
				<path class="st140" d="M2770.3,1448.1c-1.7-1.7-1.5-3.2,0.3-3.2l50.7-0.6c1.8,0,4.7,1.4,6.5,3.1l51.2,50.4c2,1.9,2,3.5,0,3.5
					l-53.4,0.8c-1.9,0-5-1.5-6.8-3.4L2770.3,1448.1z"/>
				<path class="st140" d="M2610.8,1386.7c-1.3-1.5-1-2.8,0.8-2.8l48.2-0.4c1.7,0,4.3,1.2,5.7,2.8l40.4,44.5
					c1.5,1.7,1.3,3.1-0.5,3.1l-50.7,0.6c-1.9,0-4.5-1.4-5.9-3L2610.8,1386.7z"/>
				<path class="st140" d="M2548.9,1331.5c-1.1-1.4-0.7-2.5,0.9-2.5l45.6-0.2c1.6,0,3.9,1.1,5.1,2.4l35.1,39.4
					c1.3,1.5,1,2.7-0.7,2.7l-47.8,0.4c-1.7,0-4.1-1.2-5.4-2.7L2548.9,1331.5z"/>
				<path class="st140" d="M2537.2,1282.3c-1-1.2-0.6-2.2,0.9-2.2l43-0.1c1.5,0,3.7,1,4.8,2.2l32.4,35c1.2,1.3,0.9,2.4-0.7,2.4
					l-45,0.2c-1.6,0-3.9-1.1-5-2.4L2537.2,1282.3z"/>
				<path class="st140" d="M2564.6,1233.2c-1-1.1-0.7-1.9,0.8-1.9h40.3c1.5,0,3.5,0.9,4.6,1.9l36.9,36.4c1.2,1.1,0.9,2.1-0.6,2.1
					l-42.2,0.1c-1.5,0-3.7-1-4.8-2.1L2564.6,1233.2z"/>
				<path class="st140" d="M2509,1233.2c-1-1.1-0.5-1.9,0.9-1.9h40.5c1.4,0,3.5,0.9,4.5,1.9l34.5,36.5c1.1,1.1,0.8,2.1-0.8,2.1
					l-42.5,0.1c-1.5,0-3.7-1-4.7-2.1L2509,1233.2z"/>
				<path class="st140" d="M2452.9,1233.2c-0.9-1.1-0.4-1.9,1.1-1.9h40.7c1.5,0,3.4,0.9,4.3,1.9l32,36.6c1,1.2,0.6,2.1-0.9,2.1
					l-42.8,0.1c-1.5,0-3.6-1-4.6-2.1L2452.9,1233.2z"/>
				<path class="st140" d="M1960.2,1233.3c-0.2-1.1,0.9-2,2.5-2h42.9c1.5,0,3,0.9,3.3,2l9.3,37.6c0.3,1.2-0.8,2.2-2.4,2.2l-45.2,0.1
					c-1.6,0-3.2-1-3.4-2.2L1960.2,1233.3z"/>
				<path class="st140" d="M1900.7,1233.3c-0.1-1.1,1.1-2,2.6-2h43.1c1.6,0,3,0.9,3.2,2l2.8,16.3c0.2,1.1-0.9,2.1-2.6,2.1l-44.2,0
					c-1.6,0-3-1-3.1-2.1L1900.7,1233.3z"/>
				<path class="st140" d="M1780.5,1233.3c0.1-1.1,1.4-2,3-2h43.7c1.6,0,2.9,0.9,2.9,2l0.3,16.4c0,1.1-1.3,2.1-2.9,2.1l-44.8,0
					c-1.6,0-2.9-1-2.9-2.1L1780.5,1233.3z"/>
				<path class="st140" d="M2381.7,1233.2c-0.8-1.1-0.2-2,1.3-2l55.7,0c1.5,0,3.4,0.9,4.2,1.9l29.4,36.7c0.9,1.2,0.5,2.1-1.1,2.1
					l-58.6,0.1c-1.5,0-3.5-1-4.4-2.1L2381.7,1233.2z"/>
				<path class="st140" d="M2019.4,1233.3c-0.3-1.1,0.7-2,2.3-2h57.9c1.5,0,3.1,0.9,3.5,2l12.8,37.5c0.4,1.2-0.6,2.2-2.2,2.2
					l-60.9,0.1c-1.6,0-3.2-1-3.5-2.2L2019.4,1233.3z"/>
				<path class="st140" d="M2093.5,1233.2c-0.4-1.1,0.6-2,2.1-2h272c1.5,0,3.3,0.9,4.1,2l26.2,36.9c0.8,1.2,0.2,2.2-1.3,2.2
					l-286,0.6c-1.6,0-3.3-1-3.7-2.2L2093.5,1233.2z"/>
				<path class="st140" d="M2477.5,1282.5c-1-1.2-0.5-2.2,1.1-2.2l43.3-0.1c1.5,0,3.7,1,4.7,2.2l30,35.1c1.1,1.3,0.7,2.4-0.9,2.4
					l-45.3,0.2c-1.6,0-3.8-1.1-4.9-2.4L2477.5,1282.5z"/>
				<path class="st140" d="M2417.5,1282.6c-0.9-1.2-0.3-2.2,1.2-2.2l43.5-0.1c1.6,0,3.6,1,4.6,2.2l27.5,35.2c1,1.3,0.6,2.4-1.1,2.4
					l-45.6,0.2c-1.6,0-3.8-1.1-4.7-2.4L2417.5,1282.6z"/>
				<path class="st140" d="M2357,1282.8c-0.8-1.2-0.2-2.2,1.4-2.2l43.8-0.1c1.6,0,3.6,1,4.4,2.2l25.1,35.3c0.9,1.3,0.3,2.4-1.3,2.4
					l-45.9,0.2c-1.7,0-3.7-1.1-4.6-2.4L2357,1282.8z"/>
				<path class="st140" d="M2296.2,1283c-0.7-1.2,0-2.2,1.6-2.2l44.1-0.1c1.6,0,3.5,1,4.3,2.2l22.6,35.5c0.8,1.3,0.2,2.4-1.5,2.4
					l-46.2,0.2c-1.6,0-3.6-1.1-4.4-2.4L2296.2,1283z"/>
				<path class="st140" d="M2234.9,1283.1c-0.6-1.2,0.2-2.2,1.8-2.2l44.4-0.1c1.6,0,3.4,1,4.1,2.2l20.1,35.6c0.8,1.3,0,2.4-1.6,2.5
					l-46.5,0.2c-1.7,0-3.6-1.1-4.3-2.4L2234.9,1283.1z"/>
				<path class="st140" d="M2173.3,1283.3c-0.5-1.2,0.3-2.2,2-2.2l44.7-0.1c1.6,0,3.4,1,4,2.2l17.5,35.7c0.7,1.3-0.2,2.5-1.9,2.5
					l-46.8,0.2c-1.7,0-3.5-1.1-4.1-2.4L2173.3,1283.3z"/>
				<path class="st140" d="M2111.3,1283.5c-0.4-1.2,0.5-2.2,2.2-2.3l44.9-0.1c1.6,0,3.3,1,3.8,2.2l14.9,35.8c0.6,1.3-0.4,2.5-2,2.5
					l-47.1,0.2c-1.7,0-3.5-1.1-4-2.5L2111.3,1283.5z"/>
				<path class="st140" d="M2048.8,1283.6c-0.3-1.2,0.7-2.3,2.3-2.3l45.2-0.1c1.6,0,3.3,1,3.7,2.2l12.3,36c0.5,1.3-0.6,2.5-2.3,2.5
					l-47.4,0.2c-1.7,0-3.4-1.1-3.8-2.5L2048.8,1283.6z"/>
				<path class="st140" d="M1986,1283.8c-0.3-1.2,0.9-2.3,2.5-2.3l45.5-0.1c1.6,0,3.2,1,3.6,2.2l9.6,36.1c0.4,1.4-0.7,2.5-2.5,2.5
					l-47.8,0.2c-1.7,0-3.3-1.1-3.6-2.5L1986,1283.8z"/>
				<path class="st140" d="M1922.7,1284c-0.2-1.2,1.1-2.3,2.7-2.3l45.8-0.1c1.6,0,3.2,1,3.4,2.3l6.9,36.2c0.3,1.4-0.9,2.5-2.7,2.5
					l-48.1,0.2c-1.7,0-3.3-1.1-3.5-2.5L1922.7,1284z"/>
				<path class="st140" d="M1778.7,1284.4c0.1-1.3,1.5-2.3,3.1-2.3l126.3-0.3c1.7,0,3.1,1,3.3,2.3l4.2,36.4c0.2,1.4-1.1,2.5-2.9,2.5
					l-132.5,0.6c-1.8,0-3.1-1.1-3.1-2.5L1778.7,1284.4z"/>
				<path class="st140" d="M2485.7,1331.9c-1-1.4-0.6-2.5,1.1-2.5l45.9-0.2c1.6,0,3.9,1.1,5,2.4l32.4,39.5c1.2,1.5,0.8,2.7-0.9,2.7
					l-48.1,0.4c-1.7,0-4.1-1.2-5.2-2.7L2485.7,1331.9z"/>
				<path class="st140" d="M2421.9,1332.2c-0.9-1.4-0.3-2.5,1.3-2.5l46.2-0.2c1.6,0,3.8,1.1,4.8,2.4l29.6,39.7
					c1.1,1.5,0.6,2.7-1.1,2.7l-48.5,0.4c-1.7,0-4-1.2-5-2.7L2421.9,1332.2z"/>
				<path class="st140" d="M2357.8,1332.5c-0.8-1.4-0.2-2.5,1.5-2.5l46.5-0.2c1.7,0,3.8,1.1,4.7,2.5l26.9,39.8
					c1,1.5,0.4,2.7-1.3,2.7l-48.8,0.4c-1.8,0-3.9-1.2-4.8-2.7L2357.8,1332.5z"/>
				<path class="st140" d="M2293.2,1332.9c-0.8-1.4,0-2.5,1.7-2.5l46.8-0.2c1.7,0,3.7,1.1,4.5,2.5l24.1,40c0.9,1.5,0.2,2.7-1.5,2.7
					l-49.2,0.4c-1.8,0-3.9-1.2-4.7-2.7L2293.2,1332.9z"/>
				<path class="st140" d="M2228.2,1333.2c-0.7-1.4,0.2-2.5,1.9-2.5l47.1-0.2c1.7,0,3.7,1.1,4.4,2.5l21.2,40.2
					c0.8,1.5,0,2.7-1.8,2.8l-49.5,0.4c-1.8,0-3.8-1.2-4.5-2.7L2228.2,1333.2z"/>
				<path class="st140" d="M2162.7,1333.6c-0.5-1.4,0.4-2.5,2.1-2.5l47.4-0.2c1.7,0,3.6,1.1,4.2,2.5l18.3,40.3
					c0.7,1.5-0.2,2.8-2,2.8l-49.8,0.4c-1.8,0-3.8-1.2-4.3-2.7L2162.7,1333.6z"/>
				<path class="st140" d="M2096.8,1333.9c-0.4-1.4,0.6-2.5,2.3-2.5l47.8-0.2c1.7,0,3.5,1.1,4.1,2.5l15.4,40.5
					c0.6,1.5-0.4,2.8-2.2,2.8l-50.2,0.4c-1.8,0-3.7-1.2-4.2-2.7L2096.8,1333.9z"/>
				<path class="st140" d="M2030.4,1334.3c-0.3-1.4,0.8-2.5,2.5-2.5l48.1-0.3c1.7,0,3.5,1.1,3.9,2.5l12.4,40.6
					c0.5,1.5-0.6,2.8-2.4,2.8l-50.6,0.4c-1.8,0-3.6-1.2-4-2.7L2030.4,1334.3z"/>
				<path class="st140" d="M1963.6,1334.7c-0.2-1.4,1-2.5,2.7-2.6l48.5-0.3c1.7,0,3.4,1.1,3.7,2.5l9.4,40.8c0.3,1.5-0.8,2.8-2.7,2.8
					l-51,0.4c-1.8,0-3.5-1.2-3.8-2.8L1963.6,1334.7z"/>
				<path class="st140" d="M1896.3,1335c-0.1-1.4,1.2-2.6,3-2.6l48.8-0.3c1.8,0,3.4,1.1,3.6,2.5l6.3,41c0.2,1.5-1.1,2.8-2.9,2.8
					l-51.3,0.4c-1.8,0-3.5-1.2-3.6-2.8L1896.3,1335z"/>
				<path class="st140" d="M1828.5,1335.4c0-1.4,1.4-2.6,3.2-2.6l49.1-0.3c1.8,0,3.3,1.1,3.4,2.5l3.2,41.1c0.1,1.5-1.3,2.8-3.1,2.8
					l-51.7,0.4c-1.9,0-3.4-1.3-3.4-2.8L1828.5,1335.4z"/>
				<path class="st140" d="M2543.8,1387.3c-1.2-1.6-0.8-2.8,1-2.8l48.5-0.4c1.7,0,4.2,1.2,5.5,2.8l37.4,44.7c1.4,1.7,1,3.1-0.8,3.1
					l-51.1,0.6c-1.8,0-4.4-1.4-5.7-3L2543.8,1387.3z"/>
				<path class="st140" d="M2476.3,1387.8c-1.1-1.6-0.6-2.8,1.2-2.8l48.9-0.4c1.7,0,4.1,1.2,5.3,2.8l34.3,44.9
					c1.3,1.7,0.8,3.1-1,3.1l-51.5,0.6c-1.9,0-4.4-1.4-5.5-3L2476.3,1387.8z"/>
				<path class="st140" d="M2408.4,1388.4c-1-1.6-0.3-2.8,1.4-2.9l49.2-0.4c1.7,0,4.1,1.2,5.1,2.8l31.2,45.1
					c1.2,1.7,0.6,3.1-1.2,3.1l-51.8,0.6c-1.9,0-4.3-1.4-5.4-3.1L2408.4,1388.4z"/>
				<path class="st140" d="M2339.9,1389c-0.9-1.6-0.1-2.9,1.6-2.9l49.6-0.4c1.8,0,4,1.2,5,2.8l28,45.3c1,1.7,0.4,3.1-1.5,3.1
					l-52.2,0.6c-1.9,0-4.2-1.4-5.1-3.1L2339.9,1389z"/>
				<path class="st140" d="M2271,1389.5c-0.8-1.6,0.1-2.9,1.9-2.9l50-0.4c1.8,0,3.9,1.2,4.8,2.8l24.8,45.5c0.9,1.7,0.2,3.1-1.7,3.2
					l-52.6,0.6c-1.9,0-4.1-1.4-5-3.1L2271,1389.5z"/>
				<path class="st140" d="M2201.5,1390.1c-0.7-1.6,0.3-2.9,2.1-2.9l50.3-0.4c1.8,0,3.9,1.2,4.6,2.8l21.6,45.7
					c0.8,1.7-0.1,3.1-2,3.2l-53.1,0.6c-1.9,0-4-1.4-4.7-3.1L2201.5,1390.1z"/>
				<path class="st140" d="M2131.5,1390.7c-0.5-1.6,0.5-2.9,2.3-2.9l50.7-0.4c1.8,0,3.8,1.3,4.4,2.8l18.2,45.9
					c0.7,1.7-0.3,3.2-2.2,3.2l-53.5,0.6c-1.9,0-4-1.4-4.5-3.1L2131.5,1390.7z"/>
				<path class="st140" d="M2061,1391.3c-0.4-1.6,0.7-2.9,2.6-2.9l51.1-0.4c1.8,0,3.7,1.3,4.2,2.9l14.9,46.1
					c0.6,1.7-0.6,3.2-2.5,3.2l-53.9,0.6c-2,0-3.9-1.4-4.4-3.1L2061,1391.3z"/>
				<path class="st140" d="M1990.1,1391.9c-0.3-1.6,1-2.9,2.8-2.9l51.5-0.4c1.9,0,3.7,1.3,4.1,2.9l11.5,46.3
					c0.4,1.7-0.8,3.2-2.7,3.2l-54.3,0.6c-1.9,0-3.8-1.4-4.1-3.1L1990.1,1391.9z"/>
				<path class="st140" d="M1918.5,1392.5c-0.2-1.6,1.2-2.9,3.1-2.9l51.8-0.4c1.8,0,3.6,1.3,3.9,2.9l8,46.5c0.3,1.7-1.1,3.2-3,3.2
					l-54.7,0.6c-2,0-3.8-1.4-3.9-3.2L1918.5,1392.5z"/>
				<path class="st140" d="M1846.4,1393.1c-0.1-1.6,1.4-2.9,3.3-3l52.2-0.4c1.9,0,3.5,1.3,3.7,2.9l4.5,46.8c0.2,1.7-1.3,3.2-3.3,3.2
					l-55.2,0.6c-2,0-3.6-1.4-3.7-3.2L1846.4,1393.1z"/>
				<path class="st140" d="M2677.3,1386.2c-1.4-1.5-1.2-2.8,0.6-2.8l81-0.7c1.7,0,4.4,1.2,5.9,2.7l44.9,44.2c1.7,1.6,1.6,3-0.2,3.1
					l-85.1,0.9c-1.8,0-4.6-1.3-6.1-3L2677.3,1386.2z"/>
				<path class="st140" d="M1770.9,1459.9c0.1-1.9,1.8-3.4,3.8-3.4l95.2-1.1c2,0,3.7,1.5,3.8,3.3l3.1,53.8c0.1,2.1-1.5,3.7-3.6,3.8
					l-101,1.5c-2.2,0-3.8-1.6-3.7-3.7L1770.9,1459.9z"/>
				<path class="st140" d="M2611.8,1331.2c-1.2-1.4-0.9-2.5,0.8-2.5l91.2-0.5c1.6,0,4,1.1,5.4,2.4l39.7,39.1
					c1.5,1.4,1.3,2.7-0.4,2.7l-95.6,0.7c-1.7,0-4.2-1.2-5.5-2.6L2611.8,1331.2z"/>
				<path class="st140" d="M2596.5,1282.1c-1.1-1.2-0.8-2.2,0.7-2.2l57.5-0.2c1.5,0,3.8,1,5,2.2l35.3,34.8c1.3,1.3,1.1,2.4-0.5,2.4
					l-60.1,0.3c-1.6,0-3.9-1.1-5.2-2.4L2596.5,1282.1z"/>
				<path class="st140" d="M2699.8,1448.9c-1.5-1.7-1.3-3.2,0.6-3.2l51-0.6c1.8,0,4.7,1.4,6.3,3.1l47.9,50.7
					c1.8,1.9,1.7,3.5-0.2,3.6l-53.8,0.8c-2,0-4.9-1.5-6.7-3.5L2699.8,1448.9z"/>
				<path class="st140" d="M2628.8,1449.8c-1.4-1.8-1.1-3.2,0.8-3.2l51.5-0.6c1.8,0,4.6,1.4,6.1,3.1l44.4,50.9
					c1.7,1.9,1.5,3.5-0.4,3.6l-54.3,0.8c-2,0-4.8-1.5-6.4-3.5L2628.8,1449.8z"/>
				<path class="st140" d="M2557.2,1450.6c-1.3-1.8-0.8-3.2,1.1-3.2l51.8-0.6c1.9,0,4.5,1.4,5.9,3.1l41,51.2c1.6,2,1.2,3.6-0.7,3.6
					l-54.7,0.8c-2,0-4.8-1.5-6.3-3.5L2557.2,1450.6z"/>
				<path class="st140" d="M2485.1,1451.5c-1.2-1.8-0.6-3.2,1.3-3.2l52.2-0.6c1.9,0,4.4,1.4,5.7,3.2l37.5,51.4c1.4,2,1,3.6-1,3.6
					l-55.2,0.8c-2,0-4.7-1.5-6-3.5L2485.1,1451.5z"/>
				<path class="st140" d="M2412.5,1452.3c-1.1-1.8-0.4-3.2,1.5-3.3l52.6-0.6c1.9,0,4.4,1.4,5.5,3.2l33.9,51.7
					c1.3,2,0.7,3.6-1.3,3.6l-55.6,0.8c-2,0-4.6-1.6-5.8-3.5L2412.5,1452.3z"/>
				<path class="st140" d="M2339.2,1453.2c-0.9-1.8-0.1-3.3,1.8-3.3l53-0.6c1.9,0,4.3,1.4,5.3,3.2l30.3,51.9c1.2,2,0.5,3.6-1.6,3.6
					l-56.1,0.8c-2,0-4.5-1.6-5.6-3.5L2339.2,1453.2z"/>
				<path class="st140" d="M2265.5,1454c-0.8-1.8,0.1-3.3,2-3.3l53.5-0.6c1.9,0,4.2,1.4,5.1,3.2l26.6,52.2c1,2,0.2,3.6-1.9,3.7
					l-56.5,0.8c-2.1,0-4.4-1.6-5.3-3.6L2265.5,1454z"/>
				<path class="st140" d="M2191.1,1454.9c-0.7-1.8,0.4-3.3,2.3-3.3l53.9-0.6c1.9,0,4.1,1.4,4.9,3.2l22.8,52.5
					c0.9,2-0.1,3.7-2.1,3.7l-57,0.8c-2.1,0-4.4-1.6-5.1-3.6L2191.1,1454.9z"/>
				<path class="st140" d="M2116.1,1455.8c-0.5-1.8,0.6-3.3,2.5-3.3l54.3-0.6c2,0,4.1,1.4,4.7,3.2l19,52.7c0.7,2-0.4,3.7-2.4,3.7
					l-57.5,0.8c-2.1,0-4.2-1.6-4.8-3.6L2116.1,1455.8z"/>
				<path class="st140" d="M2040.5,1456.7c-0.4-1.8,0.9-3.3,2.8-3.3l54.8-0.6c1.9,0,4,1.4,4.5,3.2l15.1,53c0.6,2-0.6,3.7-2.7,3.7
					l-58,0.9c-2.1,0-4.2-1.6-4.6-3.6L2040.5,1456.7z"/>
				<path class="st140" d="M1964.4,1457.6c-0.3-1.8,1.1-3.3,3.1-3.4l55.2-0.6c2,0,3.9,1.4,4.3,3.3l11.2,53.3c0.4,2-0.9,3.7-3,3.7
					l-58.5,0.9c-2.1,0-4.1-1.6-4.4-3.6L1964.4,1457.6z"/>
				<path class="st140" d="M1887.6,1458.5c-0.1-1.8,1.4-3.4,3.4-3.4l55.6-0.6c2,0,3.8,1.4,4,3.3l7.2,53.5c0.3,2-1.2,3.7-3.3,3.8
					l-59,0.9c-2.1,0-4-1.6-4.1-3.7L1887.6,1458.5z"/>
				<g>
					<path class="st140" d="M1891.6,1250.6l-1.6-17.3c0-0.5-0.4-1-1-1.4c-0.6-0.4-1.3-0.6-2.1-0.6h-43.4c-0.7,0-1.4,0.2-2,0.6
						c-0.5,0.4-0.8,0.9-0.8,1.4l0.6,17.3L1891.6,1250.6z"/>
					<path class="st140" d="M1841.4,1253l0.6,18.2c0,0.6,0.3,1.1,0.9,1.5c0.6,0.4,1.4,0.7,2.1,0.7l45.8-0.1c0.8,0,1.5-0.2,2.1-0.7
						c0.5-0.4,0.8-1,0.7-1.5l-1.7-18.2L1841.4,1253z"/>
				</g>
				<path class="st140" d="M1830.8,1443.4c0.9,0,1.8-0.3,2.5-1c0.7-0.6,1-1.4,1-2.3l-0.9-47c0-0.8-0.3-1.5-1-2.1
					c-0.7-0.5-1.6-0.8-2.4-0.8l-13.7,0.1l0-55c0-0.7-0.3-1.3-1-1.8c-0.6-0.5-1.4-0.7-2.3-0.7l-33.3,0.2c-0.8,0-1.7,0.2-2.3,0.8
					c-0.7,0.5-1,1.2-1,1.8l-4.7,105.2c0,0.8,0.3,1.6,1,2.3c0.7,0.6,1.6,0.9,2.5,0.9L1830.8,1443.4z"/>
			</g>
			<g>
				<g>
					<path class="st2" d="M2774,1436.4c-1.7-1.7-1.5-3.2,0.3-3.2l50.7-0.6c1.8,0,4.7,1.4,6.5,3.1l51.2,50.4c2,1.9,2,3.5,0,3.5
						l-53.4,0.8c-1.9,0-5-1.5-6.8-3.4L2774,1436.4z"/>
					<path class="st2" d="M2614.5,1374.9c-1.3-1.5-1-2.8,0.8-2.8l48.2-0.4c1.7,0,4.3,1.2,5.7,2.8l40.4,44.5c1.5,1.7,1.3,3.1-0.5,3.1
						l-50.7,0.6c-1.9,0-4.5-1.4-5.9-3L2614.5,1374.9z"/>
					<path class="st2" d="M2552.6,1319.7c-1.1-1.4-0.7-2.5,0.9-2.5l45.6-0.2c1.6,0,3.9,1.1,5.1,2.4l35.1,39.4c1.3,1.5,1,2.7-0.7,2.7
						l-47.8,0.4c-1.7,0-4.1-1.2-5.4-2.7L2552.6,1319.7z"/>
					<path class="st2" d="M2540.9,1270.5c-1-1.2-0.6-2.2,0.9-2.2l43-0.1c1.5,0,3.7,1,4.8,2.2l32.4,35c1.2,1.3,0.9,2.4-0.7,2.4
						l-45,0.2c-1.6,0-3.9-1.1-5-2.4L2540.9,1270.5z"/>
					<path class="st2" d="M2568.3,1221.4c-1-1.1-0.7-1.9,0.8-1.9h40.3c1.5,0,3.5,0.9,4.6,1.9l36.9,36.4c1.2,1.1,0.9,2.1-0.6,2.1
						l-42.2,0.1c-1.5,0-3.7-1-4.8-2.1L2568.3,1221.4z"/>
					<path class="st2" d="M2512.6,1221.4c-1-1.1-0.5-1.9,0.9-1.9h40.5c1.4,0,3.5,0.9,4.5,1.9l34.5,36.5c1.1,1.1,0.8,2.1-0.8,2.1
						l-42.5,0.1c-1.5,0-3.7-1-4.7-2.1L2512.6,1221.4z"/>
					<path class="st2" d="M2456.6,1221.4c-0.9-1.1-0.4-1.9,1.1-1.9h40.7c1.5,0,3.4,0.9,4.3,1.9l32,36.6c1,1.2,0.6,2.1-0.9,2.1
						l-42.8,0.1c-1.5,0-3.6-1-4.6-2.1L2456.6,1221.4z"/>
					<path class="st2" d="M1963.9,1221.5c-0.2-1.1,0.9-2,2.5-2h42.9c1.5,0,3,0.9,3.3,2l9.3,37.6c0.3,1.2-0.8,2.2-2.4,2.2l-45.2,0.1
						c-1.6,0-3.2-1-3.4-2.2L1963.9,1221.5z"/>
					<path class="st2" d="M1904.4,1221.5c-0.1-1.1,1.1-2,2.6-2h43.1c1.6,0,3,0.9,3.2,2l2.8,16.3c0.2,1.1-0.9,2.1-2.6,2.1l-44.2,0
						c-1.6,0-3-1-3.1-2.1L1904.4,1221.5z"/>
					<path class="st2" d="M1784.2,1221.5c0.1-1.1,1.4-2,3-2l43.7,0c1.6,0,2.9,0.9,2.9,2l0.3,16.4c0,1.1-1.3,2.1-2.9,2.1l-44.8,0
						c-1.6,0-2.9-1-2.9-2.1L1784.2,1221.5z"/>
					<path class="st2" d="M2385.4,1221.4c-0.8-1.1-0.2-2,1.3-2h55.7c1.5,0,3.4,0.9,4.2,1.9l29.4,36.7c0.9,1.2,0.5,2.1-1.1,2.1
						l-58.6,0.1c-1.5,0-3.5-1-4.4-2.1L2385.4,1221.4z"/>
					<path class="st2" d="M2023.1,1221.5c-0.3-1.1,0.7-2,2.3-2h57.9c1.5,0,3.1,0.9,3.5,2l12.8,37.5c0.4,1.2-0.6,2.2-2.2,2.2
						l-60.9,0.1c-1.6,0-3.2-1-3.5-2.2L2023.1,1221.5z"/>
					<path class="st2" d="M2097.1,1221.5c-0.4-1.1,0.6-2,2.1-2h272c1.5,0,3.3,0.9,4.1,2l26.2,36.9c0.8,1.2,0.2,2.2-1.3,2.2l-286,0.6
						c-1.6,0-3.3-1-3.7-2.2L2097.1,1221.5z"/>
					<path class="st2" d="M2481.2,1270.7c-1-1.2-0.5-2.2,1.1-2.2l43.3-0.1c1.5,0,3.7,1,4.7,2.2l30,35.1c1.1,1.3,0.7,2.4-0.9,2.4
						l-45.3,0.2c-1.6,0-3.8-1.1-4.9-2.4L2481.2,1270.7z"/>
					<path class="st2" d="M2421.2,1270.9c-0.9-1.2-0.3-2.2,1.2-2.2l43.5-0.1c1.6,0,3.6,1,4.6,2.2l27.5,35.2c1,1.3,0.6,2.4-1.1,2.4
						l-45.6,0.2c-1.6,0-3.8-1.1-4.7-2.4L2421.2,1270.9z"/>
					<path class="st2" d="M2360.7,1271c-0.8-1.2-0.2-2.2,1.4-2.2l43.8-0.1c1.6,0,3.6,1,4.4,2.2l25.1,35.3c0.9,1.3,0.3,2.4-1.3,2.4
						l-45.9,0.2c-1.7,0-3.7-1.1-4.6-2.4L2360.7,1271z"/>
					<path class="st2" d="M2299.9,1271.2c-0.7-1.2,0-2.2,1.6-2.2l44.1-0.1c1.6,0,3.5,1,4.3,2.2l22.6,35.5c0.8,1.3,0.2,2.4-1.5,2.4
						l-46.2,0.2c-1.6,0-3.6-1.1-4.4-2.4L2299.9,1271.2z"/>
					<path class="st2" d="M2238.6,1271.4c-0.6-1.2,0.2-2.2,1.8-2.2l44.4-0.1c1.6,0,3.4,1,4.1,2.2l20.1,35.6c0.8,1.3,0,2.4-1.6,2.5
						l-46.5,0.2c-1.7,0-3.6-1.1-4.3-2.4L2238.6,1271.4z"/>
					<path class="st2" d="M2177,1271.5c-0.5-1.2,0.3-2.2,2-2.2l44.7-0.1c1.6,0,3.4,1,4,2.2l17.5,35.7c0.7,1.3-0.2,2.5-1.9,2.5
						l-46.8,0.2c-1.7,0-3.5-1.1-4.1-2.4L2177,1271.5z"/>
					<path class="st2" d="M2115,1271.7c-0.4-1.2,0.5-2.2,2.2-2.3l44.9-0.1c1.6,0,3.3,1,3.8,2.2l14.9,35.8c0.6,1.3-0.4,2.5-2,2.5
						l-47.1,0.2c-1.7,0-3.5-1.1-4-2.5L2115,1271.7z"/>
					<path class="st2" d="M2052.5,1271.9c-0.3-1.2,0.7-2.3,2.3-2.3l45.2-0.1c1.6,0,3.3,1,3.7,2.2l12.3,36c0.5,1.3-0.6,2.5-2.3,2.5
						l-47.4,0.2c-1.7,0-3.4-1.1-3.8-2.5L2052.5,1271.9z"/>
					<path class="st2" d="M1989.7,1272c-0.3-1.2,0.9-2.3,2.5-2.3l45.5-0.1c1.6,0,3.2,1,3.6,2.2l9.6,36.1c0.4,1.4-0.7,2.5-2.5,2.5
						l-47.8,0.2c-1.7,0-3.3-1.1-3.6-2.5L1989.7,1272z"/>
					<path class="st2" d="M1926.4,1272.2c-0.2-1.2,1.1-2.3,2.7-2.3l45.8-0.1c1.6,0,3.2,1,3.4,2.3l6.9,36.2c0.3,1.4-0.9,2.5-2.7,2.5
						l-48.1,0.2c-1.7,0-3.3-1.1-3.5-2.5L1926.4,1272.2z"/>
					<path class="st2" d="M1782.4,1272.6c0.1-1.3,1.5-2.3,3.1-2.3l126.3-0.3c1.7,0,3.1,1,3.3,2.3l4.2,36.4c0.2,1.4-1.1,2.5-2.9,2.5
						l-132.5,0.6c-1.8,0-3.1-1.1-3.1-2.5L1782.4,1272.6z"/>
					<path class="st2" d="M2489.4,1320.1c-1-1.4-0.6-2.5,1.1-2.5l45.9-0.2c1.6,0,3.9,1.1,5,2.4l32.4,39.5c1.2,1.5,0.8,2.7-0.9,2.7
						l-48.1,0.4c-1.7,0-4.1-1.2-5.2-2.7L2489.4,1320.1z"/>
					<path class="st2" d="M2425.6,1320.4c-0.9-1.4-0.3-2.5,1.3-2.5l46.2-0.2c1.6,0,3.8,1.1,4.8,2.4l29.6,39.7
						c1.1,1.5,0.6,2.7-1.1,2.7l-48.5,0.4c-1.7,0-4-1.2-5-2.7L2425.6,1320.4z"/>
					<path class="st2" d="M2361.5,1320.8c-0.8-1.4-0.2-2.5,1.5-2.5l46.5-0.2c1.7,0,3.8,1.1,4.7,2.5l26.9,39.8c1,1.5,0.4,2.7-1.3,2.7
						l-48.8,0.4c-1.8,0-3.9-1.2-4.8-2.7L2361.5,1320.8z"/>
					<path class="st2" d="M2296.9,1321.1c-0.8-1.4,0-2.5,1.7-2.5l46.8-0.2c1.7,0,3.7,1.1,4.5,2.5l24.1,40c0.9,1.5,0.2,2.7-1.5,2.7
						l-49.2,0.4c-1.8,0-3.9-1.2-4.7-2.7L2296.9,1321.1z"/>
					<path class="st2" d="M2231.9,1321.5c-0.7-1.4,0.2-2.5,1.9-2.5l47.1-0.2c1.7,0,3.7,1.1,4.4,2.5l21.2,40.2c0.8,1.5,0,2.7-1.8,2.8
						l-49.5,0.4c-1.8,0-3.8-1.2-4.5-2.7L2231.9,1321.5z"/>
					<path class="st2" d="M2166.4,1321.8c-0.5-1.4,0.4-2.5,2.1-2.5l47.4-0.2c1.7,0,3.6,1.1,4.2,2.5l18.3,40.3c0.7,1.5-0.2,2.8-2,2.8
						l-49.8,0.4c-1.8,0-3.8-1.2-4.3-2.7L2166.4,1321.8z"/>
					<path class="st2" d="M2100.5,1322.2c-0.4-1.4,0.6-2.5,2.3-2.5l47.8-0.3c1.7,0,3.5,1.1,4.1,2.5l15.4,40.5
						c0.6,1.5-0.4,2.8-2.2,2.8l-50.2,0.4c-1.8,0-3.7-1.2-4.2-2.7L2100.5,1322.2z"/>
					<path class="st2" d="M2034.1,1322.5c-0.3-1.4,0.8-2.5,2.5-2.5l48.1-0.3c1.7,0,3.5,1.1,3.9,2.5l12.4,40.6
						c0.5,1.5-0.6,2.8-2.4,2.8l-50.6,0.4c-1.8,0-3.6-1.2-4-2.7L2034.1,1322.5z"/>
					<path class="st2" d="M1967.3,1322.9c-0.2-1.4,1-2.5,2.7-2.6l48.5-0.3c1.7,0,3.4,1.1,3.7,2.5l9.4,40.8c0.3,1.5-0.8,2.8-2.7,2.8
						l-51,0.4c-1.8,0-3.5-1.2-3.8-2.8L1967.3,1322.9z"/>
					<path class="st2" d="M1900,1323.2c-0.1-1.4,1.2-2.6,3-2.6l48.8-0.3c1.8,0,3.4,1.1,3.6,2.5l6.3,41c0.2,1.5-1.1,2.8-2.9,2.8
						l-51.3,0.4c-1.8,0-3.5-1.2-3.6-2.8L1900,1323.2z"/>
					<path class="st2" d="M1832.2,1323.6c0-1.4,1.4-2.6,3.2-2.6l49.1-0.3c1.8,0,3.3,1.1,3.4,2.5l3.2,41.1c0.1,1.5-1.3,2.8-3.1,2.8
						l-51.7,0.4c-1.9,0-3.4-1.3-3.4-2.8L1832.2,1323.6z"/>
					<path class="st2" d="M2547.5,1375.5c-1.2-1.6-0.8-2.8,1-2.8l48.5-0.4c1.7,0,4.2,1.2,5.5,2.8l37.4,44.7c1.4,1.7,1,3.1-0.8,3.1
						l-51.1,0.6c-1.8,0-4.4-1.4-5.7-3L2547.5,1375.5z"/>
					<path class="st2" d="M2480,1376.1c-1.1-1.6-0.6-2.8,1.2-2.8l48.9-0.4c1.7,0,4.1,1.2,5.3,2.8l34.3,44.9c1.3,1.7,0.8,3.1-1,3.1
						l-51.5,0.6c-1.9,0-4.4-1.4-5.5-3L2480,1376.1z"/>
					<path class="st2" d="M2412.1,1376.6c-1-1.6-0.3-2.8,1.4-2.9l49.2-0.4c1.7,0,4.1,1.2,5.1,2.8l31.2,45.1c1.2,1.7,0.6,3.1-1.2,3.1
						l-51.8,0.6c-1.9,0-4.3-1.4-5.4-3.1L2412.1,1376.6z"/>
					<path class="st2" d="M2343.6,1377.2c-0.9-1.6-0.1-2.9,1.6-2.9l49.6-0.4c1.8,0,4,1.2,5,2.8l28,45.3c1,1.7,0.4,3.1-1.5,3.1
						l-52.2,0.6c-1.9,0-4.2-1.4-5.1-3.1L2343.6,1377.2z"/>
					<path class="st2" d="M2274.7,1377.8c-0.8-1.6,0.1-2.9,1.9-2.9l50-0.4c1.8,0,3.9,1.2,4.8,2.8l24.8,45.5c0.9,1.7,0.2,3.1-1.7,3.2
						l-52.6,0.6c-1.9,0-4.1-1.4-5-3.1L2274.7,1377.8z"/>
					<path class="st2" d="M2205.2,1378.4c-0.7-1.6,0.3-2.9,2.1-2.9l50.3-0.4c1.8,0,3.9,1.2,4.6,2.8l21.6,45.7c0.8,1.7-0.1,3.1-2,3.2
						l-53.1,0.6c-1.9,0-4-1.4-4.7-3.1L2205.2,1378.4z"/>
					<path class="st2" d="M2135.2,1378.9c-0.5-1.6,0.5-2.9,2.3-2.9l50.7-0.4c1.8,0,3.8,1.3,4.4,2.8l18.2,45.9
						c0.7,1.7-0.3,3.2-2.2,3.2l-53.5,0.6c-1.9,0-4-1.4-4.5-3.1L2135.2,1378.9z"/>
					<path class="st2" d="M2064.7,1379.5c-0.4-1.6,0.7-2.9,2.6-2.9l51.1-0.4c1.8,0,3.7,1.3,4.2,2.9l14.9,46.1
						c0.6,1.7-0.6,3.2-2.5,3.2l-53.9,0.6c-2,0-3.9-1.4-4.4-3.1L2064.7,1379.5z"/>
					<path class="st2" d="M1993.8,1380.1c-0.3-1.6,1-2.9,2.8-2.9l51.5-0.4c1.9,0,3.7,1.3,4.1,2.9l11.5,46.3c0.4,1.7-0.8,3.2-2.7,3.2
						l-54.3,0.6c-1.9,0-3.8-1.4-4.1-3.1L1993.8,1380.1z"/>
					<path class="st2" d="M1922.2,1380.7c-0.2-1.6,1.2-2.9,3.1-2.9l51.8-0.4c1.8,0,3.6,1.3,3.9,2.9l8,46.5c0.3,1.7-1.1,3.2-3,3.2
						l-54.7,0.6c-2,0-3.8-1.4-3.9-3.2L1922.2,1380.7z"/>
					<path class="st2" d="M1850.1,1381.3c-0.1-1.6,1.4-2.9,3.3-3l52.2-0.4c1.9,0,3.5,1.3,3.7,2.9l4.5,46.8c0.2,1.7-1.3,3.2-3.3,3.2
						l-55.2,0.6c-2,0-3.6-1.4-3.7-3.2L1850.1,1381.3z"/>
					<path class="st2" d="M2681,1374.4c-1.4-1.5-1.2-2.8,0.6-2.8l81-0.7c1.7,0,4.4,1.2,5.9,2.7l44.9,44.2c1.7,1.6,1.6,3-0.2,3.1
						l-85.1,0.9c-1.8,0-4.6-1.3-6.1-3L2681,1374.4z"/>
					<path class="st2" d="M1774.6,1448.1c0.1-1.9,1.8-3.4,3.8-3.4l95.2-1.1c2,0,3.7,1.5,3.8,3.3l3.1,53.8c0.1,2.1-1.5,3.7-3.6,3.8
						l-101,1.5c-2.2,0-3.8-1.6-3.7-3.7L1774.6,1448.1z"/>
					<path class="st2" d="M2615.5,1319.4c-1.2-1.4-0.9-2.5,0.8-2.5l91.2-0.5c1.6,0,4,1.1,5.4,2.4l39.7,39.1c1.5,1.4,1.3,2.7-0.4,2.7
						l-95.6,0.7c-1.7,0-4.2-1.2-5.5-2.6L2615.5,1319.4z"/>
					<path class="st2" d="M2600.2,1270.4c-1.1-1.2-0.8-2.2,0.7-2.2l57.5-0.2c1.5,0,3.8,1,5,2.2l35.3,34.8c1.3,1.3,1.1,2.4-0.5,2.4
						l-60.1,0.3c-1.6,0-3.9-1.1-5.2-2.4L2600.2,1270.4z"/>
					<path class="st2" d="M2703.5,1437.2c-1.5-1.7-1.3-3.2,0.6-3.2l51-0.6c1.8,0,4.7,1.4,6.3,3.1l47.9,50.7c1.8,1.9,1.7,3.5-0.2,3.6
						l-53.8,0.8c-2,0-4.9-1.5-6.7-3.5L2703.5,1437.2z"/>
					<path class="st2" d="M2632.5,1438c-1.4-1.8-1.1-3.2,0.8-3.2l51.5-0.6c1.8,0,4.6,1.4,6.1,3.1l44.4,50.9c1.7,1.9,1.5,3.5-0.4,3.6
						l-54.3,0.8c-2,0-4.8-1.5-6.4-3.5L2632.5,1438z"/>
					<path class="st2" d="M2560.9,1438.9c-1.3-1.8-0.8-3.2,1.1-3.2l51.8-0.6c1.9,0,4.5,1.4,5.9,3.1l41,51.2c1.6,2,1.2,3.6-0.7,3.6
						l-54.7,0.8c-2,0-4.8-1.5-6.3-3.5L2560.9,1438.9z"/>
					<path class="st2" d="M2488.8,1439.7c-1.2-1.8-0.6-3.2,1.3-3.2l52.2-0.6c1.9,0,4.4,1.4,5.7,3.2l37.5,51.4c1.4,2,1,3.6-1,3.6
						l-55.2,0.8c-2,0-4.7-1.5-6-3.5L2488.8,1439.7z"/>
					<path class="st2" d="M2416.2,1440.6c-1.1-1.8-0.4-3.2,1.5-3.3l52.6-0.6c1.9,0,4.4,1.4,5.5,3.2l33.9,51.7c1.3,2,0.7,3.6-1.3,3.6
						l-55.6,0.8c-2,0-4.6-1.6-5.8-3.5L2416.2,1440.6z"/>
					<path class="st2" d="M2342.9,1441.4c-0.9-1.8-0.1-3.3,1.8-3.3l53-0.6c1.9,0,4.3,1.4,5.3,3.2l30.3,51.9c1.2,2,0.5,3.6-1.6,3.6
						l-56.1,0.8c-2,0-4.5-1.6-5.6-3.5L2342.9,1441.4z"/>
					<path class="st2" d="M2269.2,1442.3c-0.8-1.8,0.1-3.3,2-3.3l53.5-0.6c1.9,0,4.2,1.4,5.1,3.2l26.6,52.2c1,2,0.2,3.6-1.9,3.7
						l-56.5,0.8c-2.1,0-4.4-1.6-5.3-3.6L2269.2,1442.3z"/>
					<path class="st2" d="M2194.8,1443.2c-0.7-1.8,0.4-3.3,2.3-3.3l53.9-0.6c1.9,0,4.1,1.4,4.9,3.2l22.8,52.5c0.9,2-0.1,3.7-2.1,3.7
						l-57,0.8c-2.1,0-4.4-1.6-5.1-3.6L2194.8,1443.2z"/>
					<path class="st2" d="M2119.8,1444c-0.5-1.8,0.6-3.3,2.5-3.3l54.3-0.6c2,0,4.1,1.4,4.7,3.2l19,52.7c0.7,2-0.4,3.7-2.4,3.7
						l-57.5,0.8c-2.1,0-4.2-1.6-4.8-3.6L2119.8,1444z"/>
					<path class="st2" d="M2044.2,1444.9c-0.4-1.8,0.9-3.3,2.8-3.3l54.8-0.6c1.9,0,4,1.4,4.5,3.2l15.1,53c0.6,2-0.6,3.7-2.7,3.7
						l-58,0.9c-2.1,0-4.2-1.6-4.6-3.6L2044.2,1444.9z"/>
					<path class="st2" d="M1968.1,1445.8c-0.3-1.8,1.1-3.3,3.1-3.4l55.2-0.6c2,0,3.9,1.4,4.3,3.3l11.2,53.3c0.4,2-0.9,3.7-3,3.7
						l-58.5,0.9c-2.1,0-4.1-1.6-4.4-3.6L1968.1,1445.8z"/>
					<path class="st2" d="M1891.3,1446.7c-0.1-1.8,1.4-3.4,3.4-3.4l55.6-0.6c2,0,3.8,1.4,4,3.3l7.2,53.5c0.3,2-1.2,3.7-3.3,3.8
						l-59,0.9c-2.1,0-4-1.6-4.1-3.7L1891.3,1446.7z"/>
					<g>
						<path class="st2" d="M1895.3,1238.8l-1.6-17.3c0-0.5-0.4-1-1-1.4c-0.6-0.4-1.3-0.6-2.1-0.6h-43.4c-0.7,0-1.4,0.2-2,0.6
							c-0.5,0.4-0.8,0.9-0.8,1.4l0.6,17.3L1895.3,1238.8z"/>
						<path class="st2" d="M1845.1,1241.2l0.6,18.2c0,0.6,0.3,1.1,0.9,1.5c0.6,0.4,1.4,0.7,2.1,0.7l45.8-0.1c0.8,0,1.5-0.2,2.1-0.7
							c0.5-0.4,0.8-1,0.7-1.5l-1.7-18.2L1845.1,1241.2z"/>
					</g>
					<path class="st2" d="M1834.5,1431.7c0.9,0,1.8-0.3,2.5-1c0.7-0.6,1-1.4,1-2.3l-0.9-47c0-0.8-0.3-1.5-1-2.1
						c-0.7-0.5-1.6-0.8-2.4-0.8l-13.7,0.1l0-55c0-0.7-0.3-1.3-1-1.8c-0.6-0.5-1.4-0.7-2.3-0.7l-33.3,0.2c-0.8,0-1.7,0.2-2.3,0.8
						c-0.7,0.5-1,1.2-1,1.8l-4.7,105.2c0,0.8,0.3,1.6,1,2.3c0.7,0.6,1.6,0.9,2.5,0.9L1834.5,1431.7z"/>
				</g>
			</g>
			<path class="st141" d="M1942.8,899.5L1942.8,899.5c-37.3,0-67.5-30.2-67.5-67.5v-56h135v56
				C2010.3,869.3,1980.1,899.5,1942.8,899.5z"/>
			<path class="st142" d="M1948.6,809.5h-11.5c-43.6,0-79-35.4-79-79v-68.7c0-43.6,35.4-79,79-79h11.5c43.6,0,79,35.4,79,79v68.7
				C2027.6,774.1,1992.2,809.5,1948.6,809.5z"/>
			<path class="st42" d="M1929.8,583.2c-40.2,3.7-71.8,37.5-71.8,78.7v68.7c0,41.2,31.5,75,71.8,78.7c40.2-3.7,71.8-37.5,71.8-78.7
				v-68.7C2001.6,620.7,1970.1,586.9,1929.8,583.2z"/>
			<g>
				<path class="st42" d="M1861.8,680.8c0,0-5.7-12.7-28.7-8.8c-22.2,3.8-6.2,56.4,22.1,56.4
					C1882.6,728.4,1861.8,680.8,1861.8,680.8z"/>
				<path class="st44" d="M1854,687.6c4,3.2,8.2,11.4,6.5,19.4c-2.1,10-15.9,9.6-23.1-6.4C1830.2,684.6,1845.8,680.8,1854,687.6z"/>
				<path class="st45" d="M1859.9,697.1c-8.3-5-21.3-1-15.3,13.4c6.8,5.5,14.4,3.7,15.9-3.5C1861.2,703.6,1860.9,700.2,1859.9,697.1
					z"/>
			</g>
			<g>
				<path class="st142" d="M2025.4,680.8c0,0,5.7-12.7,28.7-8.8c22.2,3.8,6.2,56.4-22.1,56.4
					C2004.6,728.4,2025.4,680.8,2025.4,680.8z"/>
				<path class="st44" d="M2033.2,687.6c-4,3.2-8.2,11.4-6.5,19.4c2.1,10,15.9,9.6,23.1-6.4C2057.1,684.6,2041.5,680.8,2033.2,687.6
					z"/>
				<path class="st45" d="M2027.3,697.1c8.3-5,21.3-1,15.3,13.4c-6.8,5.5-14.4,3.7-15.9-3.5C2026,703.6,2026.4,700.2,2027.3,697.1z"
					/>
			</g>
			<path class="st35" d="M2000.1,655.5h-44.9c-16.2,0-29.4-13.2-29.4-29.4v-33c0-28.7,23.3-52,52-52h58.9
				c19.4,0,35.2,15.8,35.2,35.2v7.5C2071.8,623.4,2039.7,655.5,2000.1,655.5z"/>
			<path class="st35" d="M2015.8,626.5v24.4c0,9.7,7.9,17.6,17.6,17.6h0l3.5-49.7L2015.8,626.5z"/>
			<path class="st35" d="M1947.9,632h-52.4c-27.3,0-49.5-22.1-49.5-49.5v-14.9c0-27.3,22.1-49.5,49.5-49.5h52.4
				c27.3,0,49.5,22.1,49.5,49.5v14.9C1997.3,609.9,1975.2,632,1947.9,632z"/>
			<path class="st43" d="M2071.8,572.9c0-1.2-0.1-2.3-0.2-3.5c-7.9-10.4-28.1-10.3-28.1-10.3s-34.2-1.7-50.3,0s-40.7,18.1-40.5,49.7
				c0.2,31.6,33.8,32.2,33.8,32.2s21.1,0,41.8,0c8,0,15.1-2.5,20.8-5.5c14-13.3,22.7-32.1,22.7-52.9V572.9z"/>
			<path class="st35" d="M1873.1,620.2v24.4c0,9.7-7.9,17.6-17.6,17.6l0,0l-3.5-49.7L1873.1,620.2z"/>
			
				<ellipse transform="matrix(0.9998 -1.747582e-02 1.747582e-02 0.9998 -11.6486 34.6826)" class="st35" cx="1978.6" cy="683.8" rx="7.3" ry="9.9"/>
			
				<ellipse transform="matrix(0.9998 -1.747582e-02 1.747582e-02 0.9998 -11.6822 33.4734)" class="st35" cx="1909.4" cy="685.2" rx="7.3" ry="9.9"/>
			<path class="st2" d="M1921.5,741.3c7.7-4.9,40.9-4.3,46.1-1s-1.4,21.2-23,22.6C1923,764.2,1914.7,745.6,1921.5,741.3z"/>
			<line class="st143" x1="1970.8" y1="664.8" x2="2000.3" y2="660.8"/>
			<line class="st143" x1="1888.1" y1="654.6" x2="1917.1" y2="661.4"/>
			<path class="st144" d="M1911.5,724.3h-18.3c-12.5,0-22.7-10.2-22.7-22.7v-35.1c0-10.3,8.4-18.7,18.7-18.7h26.4
				c10.3,0,18.7,8.4,18.7,18.7v35.1C1934.2,714.1,1924.1,724.3,1911.5,724.3z"/>
			<path class="st144" d="M1993,724.3h-18.3c-12.5,0-22.7-10.2-22.7-22.7v-35.1c0-10.3,8.4-18.7,18.7-18.7h26.4
				c10.3,0,18.7,8.4,18.7,18.7v35.1C2015.7,714.1,2005.6,724.3,1993,724.3z"/>
			<path class="st45" d="M1941.3,719.9l4.5-0.1c4.9-0.1,8.7-4.1,8.6-9l0,0c-0.1-4.9-4.1-8.7-9-8.6l-4.5,0.1c-4.9,0.1-8.7,4.1-8.6,9
				v0C1932.4,716.1,1936.5,720,1941.3,719.9z"/>
			<path class="st144" d="M1934.8,683.8c0,0,8.6-5.2,17.1,0"/>
			<path class="st145" d="M2015.8,681.5c2.7-1.4,13.4-7,13.4-7"/>
			<line class="st145" x1="1870.5" y1="679.2" x2="1857" y2="674.2"/>
			<ellipse class="st35" cx="1567.6" cy="1090" rx="140.2" ry="125.2"/>
			<ellipse class="st35" cx="2335.3" cy="1090" rx="140.2" ry="125.2"/>
			<circle class="st35" cx="1808.8" cy="885.9" r="6.1"/>
			<path class="st147" d="M1810.6,887.2c0,0-12.7,85,0,139.7c12.7,54.7-7.7,93.3-7.7,93.3"/>
			<circle class="st35" cx="2067.6" cy="885.9" r="6.1"/>
			<path class="st147" d="M2069.4,887.2c0,0-1.2,85.2,11.5,139.8c12.7,54.7,6.5,93.2,6.5,93.2"/>
			<g>
				<path class="st148" d="M1393.7,1171.6c-22.3-2.5-42.5-17.2-50.8-39.8c-11.8-31.8,4.4-67.2,36.3-79l91-33.7
					c48.7-19.3,88.8,14.8,100.6,46.7c11.8,31.8-14.9,52.8-46.8,64.6l-102.1,37.8C1412.6,1171.6,1402.9,1172.6,1393.7,1171.6z"/>
			</g>
			<g>
				<path class="st42" d="M1616,1245.7c-12.6-1.4-24.5-8.3-31.8-19.8l-58.7-92.1c-12.9-20.3-7-47.1,13.3-60.1
					c20.3-12.9,47.1-7,60.1,13.3l58.7,92.1c12.9,20.3,7,47.1-13.3,60.1C1635.5,1244.8,1625.6,1246.8,1616,1245.7z"/>
			</g>
			<g>
				<path class="st149" d="M1490,1469.5c-65.4-7.4-119.7-58.8-128-127l-5.6-46.3c-9.7-79.8,47.1-152.3,126.8-162
					c79.8-9.7,152.3,47.1,162,126.8l5.6,46.3c9.7,79.8-47.1,152.3-126.8,162C1512.5,1470.8,1501.1,1470.8,1490,1469.5z"/>
			</g>
			<g>
				<path class="st42" d="M1361,1239.1c-43.2-4.9-69.6-25.5-73.3-70.5c-4.2-51.2,33.8-96.1,85-100.4l118.4-9.8
					c65.5-3.3,110.3,44.7,114.6,95.9c4.2,51.2-53.4,31.4-103.3,43.9C1472.1,1205.8,1411.5,1203.2,1361,1239.1z"/>
			</g>
			<g>
				<path class="st42" d="M1467.3,1306.9c-23.4-2.6-40.5-23.4-38.4-47l6.9-79.9c2.1-23.9,23.2-41.6,47.1-39.6
					c23.9,2.1,41.7,23.2,39.6,47.1l-6.9,79.9c-2.1,23.9-23.2,41.6-47.1,39.6C1468.1,1307,1467.7,1306.9,1467.3,1306.9z"/>
			</g>
			<g>
				<path class="st42" d="M1579.4,1309.5c-17.8-2-33.2-15-37.5-33.4l-18.1-78.1c-5.4-23.4,9.2-46.8,32.6-52.2
					c23.4-5.4,46.8,9.2,52.2,32.6l18.1,78.1c5.4,23.4-9.2,46.8-32.6,52.2C1589.1,1309.8,1584.1,1310,1579.4,1309.5z"/>
			</g>
			<g>
				<path class="st42" d="M1581.1,1411.7c-21.8-2.5-38.7-21-38.6-43.4l0.3-80.2c0.1-24,19.6-43.4,43.7-43.3
					c24,0.1,43.4,19.6,43.3,43.7l-0.3,80.2c-0.1,24-19.6,43.4-43.7,43.3C1584.2,1412,1582.6,1411.9,1581.1,1411.7z"/>
			</g>
			<path class="st148" d="M1555,1298.4c0.3-1.7,0.6-3.4,1-5.2c1.4-6.8,3.1-13.6,5.3-20.2c1.8-5.5,4.4-10.8,6.3-16.2
				c-0.2-0.7-0.4-1.3-0.5-2l-8.1-34.8c-13.6-25-35.5-28.2-30.3-6l13.2,62C1543.9,1285,1548.6,1292.7,1555,1298.4z"/>
			<path class="st148" d="M1611.1,1390.8c-1.6,0-3.2-0.1-4.8-0.3c-21.8-2.5-38.7-21-38.6-43.4l0.3-80.2c0-2.1,0.2-4.2,0.5-6.3
				c0-0.2-0.1-0.4-0.1-0.5c-0.9-3.4-1.4-6.9-2.7-10.1c-13.6,7.3-22.8,21.6-22.9,38.1l-0.3,80.2c-0.1,22.4,16.8,40.9,38.6,43.4
				c1.6,0.2,3.2,0.3,4.8,0.3c16.8,0.1,31.4-9.4,38.7-23.3C1620.3,1390,1615.8,1390.8,1611.1,1390.8z"/>
			<g>
				<path class="st42" d="M1446.3,1434.2c-1-0.1-2.1-0.3-3.1-0.5c-23.6-4.4-39.2-27.1-34.8-50.7l23.7-127.4
					c4.4-23.6,27.1-39.2,50.7-34.8c23.6,4.4,39.2,27.1,34.8,50.7l-23.7,127.4C1489.7,1421.4,1468.8,1436.7,1446.3,1434.2z"/>
			</g>
			<path class="st148" d="M1444.2,1253.8c5.2-38.4-9.6-59.7-11.1-42.3l-4.2,48.4c-0.9,10.4,1.9,20.3,7.4,28.3
				C1437.9,1272,1433,1265.4,1444.2,1253.8z"/>
			<path class="st148" d="M1471.4,1410.4c-1-0.1-2.1-0.3-3.1-0.5c-23.6-4.4-39.2-27.1-34.8-50.7l11.2-110.4
				c-0.5-7.7-10-7.2-12.6,6.8l-23.7,127.4c-4.4,23.6,11.2,46.3,34.8,50.7c1,0.2,2.1,0.3,3.1,0.5c19.3,2.2,37.4-8.7,44.8-26.2
				C1485,1410.3,1478.3,1411.1,1471.4,1410.4z"/>
			<g>
				<path class="st42" d="M1358.1,1306.8c-22.6-4-38.4-25.2-35.5-48.3l12.3-97.1c3-23.8,24.8-40.7,48.6-37.7
					c23.8,3,40.7,24.8,37.7,48.6l-12.3,97.1c-3,23.8-24.8,40.7-48.6,37.7C1359.6,1307.1,1358.8,1306.9,1358.1,1306.8z"/>
			</g>
			<g>
				<path class="st42" d="M1364.3,1410.4c-21.2-2.4-37.9-20.1-38.6-42l-2.3-80.8c-0.7-24,18.2-44,42.2-44.7
					c24-0.7,44,18.2,44.7,42.2l2.3,80.8c0.7,24-18.2,44-42.2,44.7C1368.4,1410.7,1366.3,1410.6,1364.3,1410.4z"/>
			</g>
			<path class="st148" d="M1337.7,1292.5c-0.4-8.6,0.9-17,2.2-25.5c0.6-3.8,0.6-7.6-0.2-11.4c-0.9-4.5,0.6-5.5,0.6-22.5
				c0-17-10.5-31.7-12.3-17.6l-5.4,43.1c-1.9,15.3,4.4,29.8,15.5,39C1337.9,1295.9,1337.8,1294.2,1337.7,1292.5z"/>
			<path class="st148" d="M1387.1,1393.6c-2.1,0.1-4.1,0-6.2-0.3c-21.2-2.4-37.9-20.1-38.6-42l-2.3-80.8c0-1.7,0-3.3,0.2-4.9
				c-0.8-4.1-1.4-8.3-1.5-12.4c-9.7,8.3-15.7,20.6-15.3,34.3l2.3,80.8c0.6,21.9,17.4,39.6,38.6,42c2,0.2,4.1,0.3,6.2,0.3
				c16.1-0.5,29.8-9.6,37-22.8C1401.4,1391.3,1394.5,1393.4,1387.1,1393.6z"/>
			<g>
				<path class="st42" d="M1277.6,1271c-3.5-0.4-7-1.3-10.5-2.8c-18.8-8.1-27.5-29.8-19.4-48.6l26.5-61.8
					c8.1-18.8,29.8-27.5,48.6-19.4c18.8,8.1,27.5,29.8,19.4,48.6l-26.5,61.8C1309.2,1264.2,1293.4,1272.8,1277.6,1271z"/>
			</g>
			<g>
				<path class="st42" d="M1272.3,1374.7c-19.3-2.2-33.8-19-32.8-38.6l5.2-103.1c1-20.4,18.4-36.1,38.8-35.1
					c20.4,1,36.1,18.4,35.1,38.8l-5.2,103.1c-1,20.4-18.4,36.1-38.8,35.1C1273.8,1374.8,1273.1,1374.7,1272.3,1374.7z"/>
			</g>
			<path class="st148" d="M1255.2,1260c0.4-8.8-0.1-17.6,0.6-26.3c0.3-3.3,0.4-8,1.7-11.9c-0.6-6,0.3-12.2,2.8-18.2l26.2-61.1
				c-5.3,3.8-9.6,9-12.3,15.4l-26.5,61.8C1241.7,1233.8,1245.1,1249.6,1255.2,1260z"/>
			<path class="st148" d="M1287.2,1358.8c-0.8,0-1.5-0.1-2.3-0.2c-19.3-2.2-33.8-19-32.8-38.6l5.2-103.1c0.2-4.3,1.2-8.3,2.7-12.1
				c-8.8,6.3-14.7,16.5-15.3,28.1l-5.2,103.1c-1,19.6,13.5,36.5,32.8,38.6c0.8,0.1,1.5,0.1,2.3,0.2c16.1,0.8,30.4-8.9,36.1-23
				C1304.2,1356.6,1296,1359.2,1287.2,1358.8z"/>
			<g>
				<path class="st148" d="M2431.6,1173.9c22.5,0,44.1-12.4,55-33.8c15.3-30.3,3.1-67.3-27.2-82.6l-97.2-49
					c-57.3-17.6-82.7,16.6-98,46.9s12.3,47.6,42.6,62.9l97.2,49C2412.9,1171.7,2422.3,1173.9,2431.6,1173.9z"/>
			</g>
			<g>
				<path class="st148" d="M2188.4,1229.3c12.7,0,25.3-5.5,33.9-16.1l68.7-84.9c15.1-18.7,12.2-46.1-6.5-61.2
					c-18.7-15.1-46.1-12.2-61.2,6.5l-68.7,84.9c-15.1,18.7-12.2,46.1,6.5,61.2C2169.1,1226.1,2178.8,1229.3,2188.4,1229.3z"/>
			</g>
			<g>
				<path class="st42" d="M2456.4,1251.2c43.5,0,72-17.6,80.7-61.9c9.9-50.4-22.9-99.3-73.2-109.2l-116.6-23
					c-50.4-9.9-99.3,22.9-109.2,73.2s34.3,46.4,82.4,64.4C2349.8,1205.7,2410.3,1210,2456.4,1251.2z"/>
			</g>
			<g>
				<path class="st42" d="M2335.8,1303.4c23.3,3,44.9-13.2,48.5-36.6l12.1-79.3c3.6-23.7-12.7-45.9-36.4-49.6
					c-23.7-3.6-45.9,12.7-49.6,36.4l-12.1,79.3c-3.6,23.7,12.7,45.9,36.4,49.6C2335.1,1303.3,2335.4,1303.4,2335.8,1303.4z"/>
			</g>
			<g>
				<path class="st42" d="M2218.5,1291.9c17.7,2.5,35.9-6.2,44.7-23l37-71.1c11.1-21.3,2.8-47.6-18.5-58.7
					c-21.3-11.1-47.6-2.8-58.7,18.5l-37,71.1c-11.1,21.3-2.8,47.6,18.5,58.7C2209,1289.7,2213.8,1291.2,2218.5,1291.9z"/>
			</g>
			<g>
				<path class="st42" d="M2191.3,1390.4c21.7,3.1,42.7-10.6,48.2-32.4l19.7-77.7c5.9-23.3-8.2-47-31.4-52.9
					c-23.3-5.9-47,8.2-52.9,31.4l-19.7,77.7c-5.9,23.3,8.2,47,31.4,52.9C2188.2,1389.9,2189.8,1390.2,2191.3,1390.4z"/>
			</g>
			<path class="st148" d="M2196.4,1242.8c4.1-6.6,8.2-9.6,12.7-15.9c0.8-4,2.1-11.5,4.1-15.3l16.9-32.6c11.6-22.7-0.7-33.7-7.1-21.4
				l-37,71.1c-5.9,11.3-6.3,24.1-2.2,35.2C2187.4,1256.5,2192.1,1249.8,2196.4,1242.8z"/>
			<path class="st148" d="M2218.5,1373.3c-1.6-0.2-3.1-0.5-4.7-0.9c-23.3-5.9-37.4-29.6-31.4-52.9l19.7-77.7
				c1.4-5.5,3.8-10.5,7-14.9c-16.1,3-29.8,15.1-34.1,32l-19.7,77.7c-5.9,23.3,8.2,47,31.4,52.9c1.6,0.4,3.1,0.7,4.7,0.9
				c16.2,2.3,32-4.8,41.2-17.5C2228,1373.8,2223.3,1373.9,2218.5,1373.3z"/>
			<g>
				<path class="st42" d="M2361.5,1430.5c1-0.1,2.1-0.2,3.1-0.3c23.8-3.4,40.3-25.5,36.8-49.3l-18.5-128.3
					c-3.4-23.8-25.5-40.3-49.3-36.8c-23.8,3.4-40.3,25.5-36.8,49.3l18.5,128.3C2318.7,1416.1,2339,1432.2,2361.5,1430.5z"/>
			</g>
			<path class="st148" d="M2320.9,1282.9c-1.4-7.5-2.5-15-3.1-22.6c-0.3-3.7-0.4-7.4-0.4-11.2c0-1.6,0.2-3.2,0.3-4.8
				c-0.1-2.4-0.1-4.8,0.2-7.2c0-0.2,0-0.4-0.1-0.6c-0.1-0.6,0.1-1.1,0.3-1.4l1.9-12.7c1.5-9.2-2.7-53.6-12.7-28.9l-9.4,61.8
				c2.7-17.5,8.5,37.6,26.5,45.1C2323.2,1294.6,2322,1288.7,2320.9,1282.9z"/>
			<path class="st148" d="M2384.6,1411.8c-1,0.2-2.1,0.3-3.1,0.3c-22.6,1.6-42.9-14.4-46.1-37.2l-18.5-128.3
				c-1.4-9.8-1.6-19.2,2.9-27.3c-17.2,7.8-25.7,26-22.8,45.6l18.5,128.3c3.3,22.7,23.6,38.8,46.1,37.2c1-0.1,2.1-0.2,3.1-0.3
				c13.9-2,25.4-10.4,31.8-21.8C2392.8,1410,2388.8,1411.2,2384.6,1411.8z"/>
			<g>
				<path class="st42" d="M2471.3,1315.5c22.2-5.8,36.2-28.2,31.5-51l-20-95.8c-4.9-23.5-28-38.6-51.5-33.7
					c-23.5,4.9-38.6,28-33.7,51.5l20,95.8c4.9,23.5,28,38.6,51.5,33.7C2469.8,1315.9,2470.5,1315.7,2471.3,1315.5z"/>
			</g>
			<g>
				<path class="st42" d="M2473.4,1419.3c20.9-4.1,36.2-23,35.1-44.9l-4.2-80.7c-1.2-24-21.7-42.4-45.7-41.2
					c-24,1.2-42.4,21.7-41.2,45.7l4.2,80.7c1.2,24,21.7,42.4,45.7,41.2C2469.4,1419.9,2471.4,1419.6,2473.4,1419.3z"/>
			</g>
			<path class="st148" d="M2432.2,1263.6c-0.2-0.7-0.3-1.4-0.5-2.1c0,0-4.3-27-10.2-36c-2.5-3.8-18.9-15.1-15.5,1.4l11.6,55.5
				c2.2,10.3,7.8,19,15.5,25.1C2432.4,1292.9,2432.2,1278.2,2432.2,1263.6z"/>
			<path class="st148" d="M2487.5,1398.4c-2,0.4-4,0.6-6.1,0.8c-24,1.2-44.4-17.2-45.7-41.2l-4.2-80.7c-0.3-5.2,0.4-10.3,1.9-15.1
				c-10.4,8.5-16.7,21.6-16,36l4.2,80.7c1.2,24,21.7,42.4,45.7,41.2c2.1-0.1,4.1-0.4,6.1-0.8c15.9-3.1,28.5-14.8,33.2-29.9
				C2501.2,1393.8,2494.7,1397,2487.5,1398.4z"/>
			<g>
				<path class="st42" d="M2560.1,1283.4c3.4-0.8,6.8-2.2,10-4.1c17.6-10.4,23.5-33.1,13.1-50.7l-34.1-58
					c-10.4-17.6-33.1-23.5-50.7-13.1c-17.6,10.4-23.5,33.1-13.1,50.7l34.1,58C2528,1280.6,2544.7,1287.1,2560.1,1283.4z"/>
			</g>
			<g>
				<path class="st42" d="M2591.4,1398.9c18.7-5.2,30.3-24.1,26.3-43.3l-21.4-101c-4.2-20-23.9-32.8-43.9-28.5
					c-20,4.2-32.8,23.9-28.5,43.9l21.4,101c4.2,20,23.9,32.8,43.9,28.5C2589.9,1399.3,2590.6,1399.1,2591.4,1398.9z"/>
			</g>
			<path class="st148" d="M2536.2,1277.9c-0.9-6-1.2-12.6-1.5-19.1c-0.3-5.3-2.2-10.3-5.3-14.6c-0.7-1-1.4-2-2-3.1
				c0,0-8.7-6.5-15.8-5.1c-4.3,0.8-6.4,5.7-4.2,9.5l12.2,20.7c4.2,7.1,10.3,12.2,17.3,15.2
				C2536.6,1280.2,2536.4,1279.1,2536.2,1277.9z"/>
			<path class="st148" d="M2618.4,1361c-4.7,6-11.3,10.6-19.2,12.8c-0.7,0.2-1.5,0.4-2.3,0.6c-20,4.2-39.6-8.5-43.9-28.5l-18.7-88.1
				c-3.1-3.6-5.6-7.7-7.3-12.2c-3.7,7.3-5.1,15.8-3.2,24.4l21.4,101c4.2,20,23.9,32.8,43.9,28.5c0.8-0.2,1.5-0.3,2.3-0.6
				C2608.3,1394.2,2619.5,1378.2,2618.4,1361z"/>
			<path class="st35" d="M1540.5,1466.4l-17.2-166.4c-0.4-3.5-4.1-5.6-7.3-4.1v0c-1.9,1-3.1,3-2.8,5.2l19.5,166.9
				C1532.7,1468,1532.9,1468.4,1540.5,1466.4z"/>
			<g>
				<g>
					<g>
						<path class="st82" d="M1758.7,255.1v-34.7c0-3.4,2.7-6.1,6.1-6.1l0,0c3.4,0,6.1,2.7,6.1,6.1V252c0,1.1,0.9,2.1,2.1,2.1h12.1
							c2.9,0,5.3,2.4,5.3,5.3l0,0c0,2.9-2.4,5.3-5.3,5.3h-16.9C1763,264.7,1758.7,260.4,1758.7,255.1z"/>
						<path class="st82" d="M1811.2,264.7L1811.2,264.7c-3.7,0-7-2.3-8.3-5.7l-13.7-36.3c-1.5-4,1.4-8.3,5.8-8.3h0.3
							c2.7,0,5,1.7,5.8,4.2l10.3,31.4h0.3l10.2-31.4c0.8-2.5,3.2-4.3,5.8-4.3l0,0c4.3,0,7.3,4.3,5.7,8.4l-14,36.3
							C1818.1,262.4,1814.8,264.7,1811.2,264.7z"/>
						<path class="st82" d="M1840.7,256.2v-36.6c0-2.9,2.4-5.3,5.3-5.3h1.6c2.9,0,5.3,2.4,5.3,5.3v32.5c0,1.1,0.9,1.9,1.9,1.9h12.3
							c2.9,0,5.3,2.4,5.3,5.3l0,0c0,2.9-2.4,5.3-5.3,5.3h-18C1844.5,264.7,1840.7,260.9,1840.7,256.2z"/>
						<path class="st82" d="M1915.1,266c-13.2,0-21.5-8.2-21.5-20.3v-26c0-2.9,2.4-5.3,5.3-5.3h1.5c2.9,0,5.3,2.4,5.3,5.3v25
							c0,5.4,2.6,10.4,9.5,10.4c6.9,0,9.5-5,9.5-10.4v-25c0-2.9,2.4-5.3,5.3-5.3h1.6c2.9,0,5.3,2.4,5.3,5.3v26
							C1936.8,257.8,1928.3,266,1915.1,266z"/>
						<path class="st82" d="M1964.8,245.7h-6v13.7c0,2.9-2.4,5.3-5.3,5.3h-1.6c-2.9,0-5.3-2.4-5.3-5.3v-38.6c0-3.6,2.9-6.5,6.5-6.5
							h12c11,0,19.7,4,19.7,15.5C1984.8,241.5,1975.3,245.7,1964.8,245.7z M1964.1,224.2h-0.2c-2.8,0-5.1,2.3-5.1,5.1v1.6
							c0,2.8,2.3,5.1,5.1,5.1l0,0c4.5,0,8.7-1.4,8.7-6.1C1972.6,225.1,1968.4,224.2,1964.1,224.2z"/>
					</g>
				</g>
				<g>
					<g>
						<path class="st82" d="M2057.1,244.1v16.7c0,4-3.2,7.2-7.2,7.2h-0.5c-4,0-7.2-3.2-7.2-7.2v-16.7H2025c-4,0-7.2-3.2-7.2-7.2v0
							c0-4,3.2-7.2,7.2-7.2h17.1V213c0-4,3.2-7.2,7.2-7.2h0.5c4,0,7.2,3.2,7.2,7.2v16.7h17.2c4,0,7.2,3.2,7.2,7.2v0
							c0,4-3.2,7.2-7.2,7.2H2057.1z"/>
						<path class="st82" d="M2108.9,262v-49.9l-8.3,6.4c-3.7,2.9-9.1,2.1-11.8-1.7v0c-2.7-3.7-1.9-8.9,1.8-11.6l16.5-12.1
							c2.3-1.7,5-2.6,7.9-2.6l0,0c7.3,0,13.3,5.9,13.3,13.3V262c0,5.3-4.3,9.6-9.6,9.6l0,0C2113.2,271.6,2108.9,267.3,2108.9,262z"
							/>
					</g>
				</g>
				<g class="st151">
					<g>
						<path class="st82" d="M1779.9,347.8v-30.7c0-3,2.4-5.4,5.4-5.4l0,0c3,0,5.4,2.4,5.4,5.4V345c0,1,0.8,1.8,1.8,1.8h10.7
							c2.6,0,4.7,2.1,4.7,4.7v0c0,2.6-2.1,4.7-4.7,4.7h-14.9C1783.6,356.2,1779.9,352.5,1779.9,347.8z"/>
						<path class="st82" d="M1826.3,356.2L1826.3,356.2c-3.2,0-6.2-2-7.3-5l-12.2-32.1c-1.3-3.6,1.3-7.4,5.1-7.4h0.2
							c2.4,0,4.4,1.5,5.2,3.8l9.1,27.8h0.3l9-27.8c0.7-2.2,2.8-3.8,5.2-3.8l0,0c3.8,0,6.5,3.8,5.1,7.4l-12.4,32.1
							C1832.4,354.3,1829.5,356.2,1826.3,356.2z"/>
						<path class="st82" d="M1852.5,348.8v-32.4c0-2.6,2.1-4.7,4.7-4.7h1.4c2.6,0,4.7,2.1,4.7,4.7v28.8c0,0.9,0.8,1.7,1.7,1.7h10.8
							c2.6,0,4.7,2.1,4.7,4.7v0c0,2.6-2.1,4.7-4.7,4.7H1860C1855.8,356.2,1852.5,352.9,1852.5,348.8z"/>
						<path class="st82" d="M1918.4,357.4c-11.7,0-19-7.3-19-18v-23.1c0-2.6,2.1-4.7,4.7-4.7h1.3c2.6,0,4.7,2.1,4.7,4.7v22.2
							c0,4.8,2.3,9.2,8.4,9.2c6.1,0,8.4-4.4,8.4-9.2v-22.2c0-2.6,2.1-4.7,4.7-4.7h1.4c2.6,0,4.7,2.1,4.7,4.7v23.1
							C1937.6,350.1,1930,357.4,1918.4,357.4z"/>
						<path class="st82" d="M1962.4,339.4h-5.3v12.1c0,2.6-2.1,4.7-4.7,4.7h-1.4c-2.6,0-4.7-2.1-4.7-4.7v-34.2
							c0-3.2,2.6-5.7,5.7-5.7h10.6c9.8,0,17.4,3.5,17.4,13.7C1980.1,335.7,1971.7,339.4,1962.4,339.4z M1961.7,320.4h-0.2
							c-2.5,0-4.5,2-4.5,4.5v1.4c0,2.5,2,4.5,4.5,4.5h0c4,0,7.7-1.2,7.7-5.4C1969.3,321.2,1965.6,320.4,1961.7,320.4z"/>
					</g>
				</g>
				<g class="st151">
					<g>
						<path class="st82" d="M2044.1,338.1v14.8c0,3.5-2.9,6.4-6.4,6.4h-0.4c-3.5,0-6.4-2.9-6.4-6.4v-14.8h-15.2
							c-3.5,0-6.4-2.9-6.4-6.4l0,0c0-3.5,2.9-6.4,6.4-6.4h15.1v-14.8c0-3.5,2.9-6.4,6.4-6.4h0.4c3.5,0,6.4,2.9,6.4,6.4v14.8h15.2
							c3.5,0,6.4,2.9,6.4,6.4l0,0c0,3.5-2.9,6.4-6.4,6.4H2044.1z"/>
						<path class="st82" d="M2090,353.9v-44.2l-7.4,5.7c-3.3,2.5-8,1.9-10.5-1.5l0,0c-2.4-3.3-1.7-7.9,1.6-10.3l14.6-10.7
							c2-1.5,4.5-2.3,7-2.3l0,0c6.5,0,11.8,5.3,11.8,11.8v51.5c0,4.7-3.8,8.5-8.5,8.5l0,0C2093.8,362.4,2090,358.6,2090,353.9z"/>
					</g>
				</g>
				<g class="st152">
					<g>
						<path class="st82" d="M1826.9,432.3v-21.9c0-2.1,1.7-3.9,3.9-3.9l0,0c2.1,0,3.9,1.7,3.9,3.9v19.9c0,0.7,0.6,1.3,1.3,1.3h7.6
							c1.8,0,3.3,1.5,3.3,3.3l0,0c0,1.8-1.5,3.3-3.3,3.3h-10.6C1829.6,438.3,1826.9,435.6,1826.9,432.3z"/>
						<path class="st82" d="M1860,438.3L1860,438.3c-2.3,0-4.4-1.4-5.2-3.6l-8.7-22.9c-1-2.5,0.9-5.3,3.6-5.3h0.2
							c1.7,0,3.2,1.1,3.7,2.7l6.5,19.8h0.2l6.4-19.8c0.5-1.6,2-2.7,3.7-2.7l0,0c2.7,0,4.6,2.7,3.6,5.3l-8.8,22.9
							C1864.4,436.9,1862.3,438.3,1860,438.3z"/>
						<path class="st82" d="M1878.7,433v-23.1c0-1.8,1.5-3.3,3.3-3.3h1c1.8,0,3.3,1.5,3.3,3.3v20.5c0,0.7,0.5,1.2,1.2,1.2h7.7
							c1.8,0,3.3,1.5,3.3,3.3l0,0c0,1.8-1.5,3.3-3.3,3.3H1884C1881,438.3,1878.7,435.9,1878.7,433z"/>
						<path class="st82" d="M1925.6,439.2c-8.3,0-13.5-5.2-13.5-12.8v-16.4c0-1.8,1.5-3.3,3.3-3.3h0.9c1.8,0,3.3,1.5,3.3,3.3v15.8
							c0,3.4,1.7,6.5,6,6.5c4.3,0,6-3.1,6-6.5v-15.8c0-1.8,1.5-3.3,3.3-3.3h1c1.8,0,3.3,1.5,3.3,3.3v16.4
							C1939.3,434,1933.9,439.2,1925.6,439.2z"/>
						<path class="st82" d="M1956.9,426.4h-3.8v8.6c0,1.8-1.5,3.3-3.3,3.3h-1c-1.8,0-3.3-1.5-3.3-3.3v-24.3c0-2.2,1.8-4.1,4.1-4.1
							h7.6c6.9,0,12.4,2.5,12.4,9.8C1969.5,423.7,1963.6,426.4,1956.9,426.4z M1956.5,412.8h-0.1c-1.8,0-3.2,1.4-3.2,3.2v1
							c0,1.8,1.4,3.2,3.2,3.2l0,0c2.9,0,5.5-0.9,5.5-3.9C1961.8,413.4,1959.2,412.8,1956.5,412.8z"/>
					</g>
				</g>
				<g class="st152">
					<g>
						<path class="st82" d="M2015.1,425.4v10.5c0,2.5-2,4.5-4.5,4.5h-0.3c-2.5,0-4.5-2-4.5-4.5v-10.5h-10.8c-2.5,0-4.5-2-4.5-4.5v0
							c0-2.5,2-4.5,4.5-4.5h10.8v-10.5c0-2.5,2-4.5,4.5-4.5h0.3c2.5,0,4.5,2,4.5,4.5v10.5h10.8c2.5,0,4.5,2,4.5,4.5v0
							c0,2.5-2,4.5-4.5,4.5H2015.1z"/>
						<path class="st82" d="M2047.8,436.6v-31.5l-5.3,4.1c-2.3,1.8-5.7,1.3-7.5-1.1l0,0c-1.7-2.3-1.2-5.6,1.1-7.3l10.4-7.6
							c1.4-1.1,3.2-1.6,5-1.6l0,0c4.6,0,8.4,3.7,8.4,8.4v36.7c0,3.3-2.7,6.1-6.1,6.1l0,0C2050.5,442.7,2047.8,440,2047.8,436.6z"/>
					</g>
				</g>
			</g>
		</g>
	</g>
</g>
</svg>
